<svg xmlns="http://www.w3.org/2000/svg" viewBox="0 0 200 200"><defs><style>.cls-1{fill:#272425;}.cls-2{fill:#232021;}.cls-3{fill:#2463ad;}.cls-4{fill:#fff;}.cls-5{fill:#285da3;}.cls-6{fill:#399cd5;}.cls-7{fill:#e4e4e3;}.cls-8{fill:#dfe1e2;}.cls-9{fill:#dbdee1;}.cls-10{fill:#e4e5e7;}.cls-11{fill:#eef0f1;}.cls-12{fill:#d4d9de;}.cls-13{fill:#2059a8;}.cls-14{fill:#bccbd7;}.cls-15{fill:#1754a3;}.cls-16{fill:#f9fbfb;}.cls-17{fill:#f5f5f5;}.cls-18{fill:#2c93d0;}.cls-19{fill:#cfe6f1;}.cls-20{fill:#f8efeb;}.cls-21{fill:#e7e7e6;}</style></defs><title>css</title><g id="Layer_2" data-name="Layer 2"><g id="Layer_1-2" data-name="Layer 1"><path class="cls-1" d="M103,.06c.86.74,2.34,1.4,2.46,2.26a40,40,0,0,1-.09,6.56H97.79L105.53,16l.26.79v3.25l-.06,3.13-.29.83-2.38.21h-12l-4.91-.2-.5-3.31,0,0,.45-4.11h7.69c-3-3-5.45-5.39-7.9-7.82V.32L91.09.06Z"/><path class="cls-2" d="M43.44.06,49,.2V8.72L43.46,9H41.07C40,9.42,37.7,7.36,38,10.5l0,3.18v2.83h7.15l3.93.36c.07,1.58.13,3.17.2,4.75.33,2.5-1.41,2.59-3.13,2.71l-14.54-.08c-2.82.28-2.17-1.9-2.44-3.44V8.93C29.39,6,29.68,3,30,0Z"/><path class="cls-2" d="M57.56,20.84l.26-4.08h6.64L65,16l-7.38-7V0h19.8c.12,2.46.22,4.49.32,6.52l-.27,2.32H70.09c3.34,4.26,8.84,6.59,7.65,12.72-.06,1.48-.09,2.75-2.29,2.57a70.52,70.52,0,0,0-7.41.12H57.9C57.76,22.84,57.66,21.84,57.56,20.84Z"/><path class="cls-3" d="M111,166.05l-12.65,3.6-12,3.12a.86.86,0,0,0-.73.12l-11.19,3L65,177.68c-3.38-.45-6.77-.87-10.14-1.38-1.41-.21-2.79-.64-4.18-1l-6.33-1.93c-.65-.72-1.17-1.87-2-2.08C38,170.1,33.53,169,29.05,168.08a60.48,60.48,0,0,0-7-.67l-1.5-.4a10.31,10.31,0,0,0-2-1.55c-2.88-1.27-6-2.13-7.49-5.37l-1.56-12c-.35-3.41-.69-6.81-1-10.22l-.86-15.1Q7,118.37,6.33,114l-1-11.09L4.54,92.62l-.68-4.78-.81-9.55L1.57,61.53C1.27,58.68,1,55.82.68,53L.11,46.54C.07,44.68,0,42.83,0,41L1.28,34.6H127.06l.69,7.2q-.72,6.72-1.45,13.44c-.3,3.45-.61,6.9-.91,10.36q-.67,4.38-1.34,8.76l-1.14,15.8q-1,9.56-2.08,19.1-.83,8.35-1.67,16.7c-.07,2.89-.13,5.79-.2,8.68l-1.43,15.14q-.73,5.94-1.45,11.89C116.71,165.78,113.08,165,111,166.05ZM62.61,59.92H23.73l-1,.81a8.18,8.18,0,0,0-.35,2.15c.36,3.83.8,7.66,1.22,11.5-.09.07-.27.17-.25.21a2.84,2.84,0,0,0,.28.51,1,1,0,0,1,.15.67c1.22.58,2.43,1.64,3.66,1.67,10.63.25,21.26.31,31.89.43l-4,2.74-11,4.49L27.74,92c-.72.68-2.1,1.41-2.06,2,.26,4,.77,8.07,1.37,12.08.13.86.95,1.61,1.45,2.41l19.82,0,15.1,0c0,7,0,13.93,0,20.89a19.44,19.44,0,0,1-.92,4L46,129.69c-.36-4.25-.72-8.51-1.08-12.83H28.16c.84,8.66,1.64,17,2.44,25.21l4.91.8,10.38,3,0,0,17.49,5.52v15.55a7.59,7.59,0,0,0,1.94.21c13-3.47,26-6.91,38.92-10.57.94-.26,1.93-2,2.06-3.18.73-6.68,1.17-13.38,1.78-20.07,1.23-13.63,2.52-27.26,3.76-40.9q1.56-17.1,3.07-34.21c.39-4.54.65-9.08,1-13.83H63.43V60Z"/><path class="cls-4" d="M86.42,172.77l.83.82-1.56-.7A.86.86,0,0,1,86.42,172.77Z"/><path class="cls-5" d="M28.66,169.47,22,167.41a60.48,60.48,0,0,1,7,.67c4.48.92,8.94,2,13.35,3.25.79.21,1.31,1.36,2,2.08Z"/><path class="cls-5" d="M10.87,161.68l.2-1.59c1.46,3.24,4.61,4.1,7.49,5.37a10.31,10.31,0,0,1,2,1.55l-4.8-.54C14.24,164.75,10.33,165.48,10.87,161.68Z"/><path class="cls-6" d="M63.43,60V44.38h52.45c-.34,4.75-.6,9.29-1,13.83q-1.48,17.1-3.07,34.21c-1.24,13.64-2.53,27.27-3.76,40.9-.61,6.69-1,13.39-1.78,20.07-.13,1.16-1.12,2.92-2.06,3.18-12.94,3.66-25.93,7.1-38.92,10.57a7.59,7.59,0,0,1-1.94-.21V151.38l1.78-.75,11-3.23c5.84-1.61,11.66-3.32,17.54-4.78,2.32-.57,3-1.65,3.17-4,.81-10.64,1.93-21.27,2.86-31.9.4-4.56.61-9.14.92-14H75.34l-7.2,0-3.07-.9c9.11-3.81,18-8.35,27.37-11.22,8.88-2.71,11.53-8.15,10.75-16.49L103,60.27l.1-.29H82.5L80,60.25l.09-.33H77.75l-.82.31-2.45.07.06-.33H71.39l-4,.33-.8-.32L65,60l0,.26-1.6,0Z"/><path class="cls-7" d="M23.77,75.76a1,1,0,0,0-.15-.67.83.83,0,0,0,0-.72c-.42-3.84-.86-7.67-1.22-11.5a8.18,8.18,0,0,1,.35-2.15l1.07.18a25.56,25.56,0,0,0,4.11.69c12.1,0,24.2,0,36.3,0h0C64,65,63.46,68.41,63.49,71.8c0,2.65-.93,3.39-3.47,3.36-9.66-.11-19.32-.07-29,0a23.92,23.92,0,0,0-4.13.75l-2.34.27Z"/><path class="cls-8" d="M35.51,142.87l-4.91-.8c-.8-8.23-1.6-16.55-2.44-25.21H44.93c.36,4.32.72,8.58,1.08,12.83,1.33,1.57,3.12,2.93,3.87,4.73,1.18,2.84,1.65,6,2.42,9h0l-6.43,2.45,0,0C44.46,143.63,38.69,142,35.51,142.87Z"/><path class="cls-6" d="M62.46,133.39a19.44,19.44,0,0,0,.92-4c.09-7,0-13.93,0-20.89l9.46-.27,7.24,0c3.27-.09,2.23,2.48,2.59,4.18-.29,4.34-.39,8.71-1,13-.22,1.54-1.62,2.92-2.47,4.37L63.45,134Z"/><path class="cls-9" d="M72.88,108.21l-9.46.27-15.1,0-19.82,0c-.5-.8-1.32-1.55-1.45-2.41-.6-4-1.11-8-1.37-12.08,0-.63,1.34-1.36,2.06-2a25.37,25.37,0,0,0,3.74.62c5.35.07,10.7,0,16.05,0-1,1.35-1.82,2.78-2.88,4-2.69,3.24-2.41,4.93,1,7.27.72.5.77,2,1.14,3H35.84c10.17.8,20.3.77,30.44.83C68.48,107.71,70.68,108,72.88,108.21Z"/><path class="cls-10" d="M62.46,133.39l1,.62c0,4.43-.14,8.86,0,13.28,0,1.14,1.06,2.23,1.64,3.34l-1.78.75-17.49-5.52,6.43-2.45L54.63,145l.42-1.27-2.75-.34c-.77-3-1.24-6.15-2.42-9-.75-1.8-2.54-3.16-3.87-4.73Zm-9.59-.61a.93.93,0,0,0,.34.1s.07-.18.1-.28a1.39,1.39,0,0,0-.33-.1S52.91,132.68,52.87,132.78Z"/><path class="cls-11" d="M47.53,92.6c-5.35,0-10.7,0-16,0A25.37,25.37,0,0,1,27.74,92l16.6-6.86c0,.65,0,1.29,0,1.94l-1.76.17v.46l1.76.16,1,1.21.25-.25-1.21-1V87c3.9.26,7.79.48,11.68.79,2.46.2,4.91.52,7.37.79l1.66,3.21,3.07.9-4.72.66Z"/><path class="cls-10" d="M63.41,88.61C61,88.34,58.5,88,56,87.82c-3.89-.31-7.78-.53-11.68-.79h0c0-.65,0-1.29,0-1.94l11-4.49,2,1-4.86,1.76,11,1.31Z"/><path class="cls-12" d="M63.39,84.63l-11-1.31,4.86-1.76-2-1,4-2.74,0-.08,4-.42.1.94C63.42,80.41,63.4,82.52,63.39,84.63Z"/><path class="cls-13" d="M23.73,59.91H62.61l-.8.31H58.66Z"/><path class="cls-13" d="M23.77,75.76l.8.42a27.7,27.7,0,0,0,3.81.53c8.83.05,17.66,0,26.49.08a21.28,21.28,0,0,1,4.49,1l0,.08c-10.63-.12-21.26-.18-31.89-.43C26.2,77.4,25,76.34,23.77,75.76Z"/><path class="cls-14" d="M23.73,59.91l34.93.32a33,33,0,0,1-4.18.56c-10.23.08-20.46.08-30.69.11l-1.07-.18Z"/><path class="cls-15" d="M28.5,108.48l19.82,0Z"/><path class="cls-10" d="M35.51,142.87c3.18-.92,9,.76,10.38,3Z"/><path class="cls-14" d="M61.81,60.23l.8-.31.82,0,0,.29a4.89,4.89,0,0,0-.05.55Z"/><path class="cls-13" d="M23.59,74.37a.83.83,0,0,1,0,.72,2.84,2.84,0,0,1-.28-.51S23.5,74.44,23.59,74.37Z"/><path class="cls-16" d="M79.26,129.8c.85-1.45,2.25-2.83,2.47-4.37.59-4.3.69-8.67,1-13,.31-1.93,2.76-4.69-1.82-4.76-.59-1.11-1.28-2.18-1.75-3.33-.79-1.93-2.09-4-1.88-5.85.11-1.06,2.78-1.85,4.32-2.72a7.5,7.5,0,0,1,1.36-.48l-1.25-2.59h19c-.31,4.86-.52,9.44-.92,14-.93,10.63-2,21.26-2.86,31.9-.17,2.38-.85,3.46-3.17,4-5.88,1.46-11.7,3.17-17.54,4.78l-1.73-1.3.37-.72,3.53.19c-1.4-4.26-2.65-8.09-4-12.3C80,134.84,80,134.84,79.26,129.8Z"/><path class="cls-16" d="M63.39,84.63c0-2.11,0-4.22,0-6.33l10.25-2.65c2-3.91,3.65-6.93,5-10.11.27-.66-.66-2-1.32-2.82a20.16,20.16,0,0,0-2.85-2.41l2.45-.07H80L82.5,60l2.37.23h10.3L96.74,60H100c.24.09.49.16.74.23h.82l1.57-.22-.1.29.18,3.84c.78,8.34-1.87,13.78-10.75,16.49C83.05,83.47,74.18,88,65.07,91.82l-1.66-3.21C63.4,87.28,63.39,86,63.39,84.63Z"/><path class="cls-17" d="M81.69,92.69l1.25,2.59a7.5,7.5,0,0,0-1.36.48c-1.54.87-4.21,1.66-4.32,2.72-.21,1.86,1.09,3.92,1.88,5.85.47,1.15,1.16,2.22,1.75,3.33l-.77.58-7.24,0c-2.2-.18-4.4-.5-6.6-.51-10.14-.06-20.27,0-30.44-.83h10.9c4.57,0,9.15-.07,13.72,0,2.18.06,3.07-.7,3-2.94-.12-3.52,0-7.06,0-10.59l4.72-.66,7.2,0c1.31,2.39,2.63,2.38,4,0Z"/><path class="cls-17" d="M74.48,60.31a20.16,20.16,0,0,1,2.85,2.41c.66.8,1.59,2.16,1.32,2.82-1.32,3.18-3,6.2-5,10.11L63.43,78.3l-.09-.94c-.88-.43-1.75-1.23-2.64-1.24C49.44,76,38.18,76,26.91,75.91A23.92,23.92,0,0,1,31,75.16c9.66-.07,19.32-.11,29,0,2.54,0,3.49-.71,3.47-3.36,0-3.39.46-6.78.72-10.17l3.17-1.32,4-.33h3.15Z"/><path class="cls-17" d="M79.26,129.8c.76,5,.76,5-4.94,3.47,1.38,4.21,2.63,8,4,12.3l-3.53-.19-.37.72,1.73,1.3-11,3.23c-.58-1.11-1.6-2.2-1.64-3.34-.19-4.42-.06-8.85,0-13.28Z"/><path class="cls-18" d="M84.87,60.22,82.5,60H96.74l-1.57.23Z"/><path class="cls-16" d="M79.29,92.69c-1.32,2.38-2.64,2.39-4,0Z"/><path class="cls-16" d="M67.38,60.31l-3.17,1.32h0c0-.27,0-.53,0-.79l.84-.61L65,60l1.58,0Z"/><path class="cls-19" d="M103.19,64.11,103,60.27Z"/><path class="cls-18" d="M103.11,60l-1.57.21h-.82c-.25-.07-.5-.14-.74-.23Z"/><path class="cls-18" d="M74.54,60h0Z"/><path class="cls-19" d="M80,60.25H76.93l.82-.31H80.1Z"/><path class="cls-18" d="M80.1,59.92h0Z"/><path class="cls-19" d="M65.05,60.23l-.84.61-.81,0a4.89,4.89,0,0,1,.05-.55Z"/><path class="cls-18" d="M66.58,60,65,60Z"/><path class="cls-3" d="M26.91,75.91c11.27,0,22.53.07,33.79.21.89,0,1.76.81,2.64,1.24l-4,.42a21.28,21.28,0,0,0-4.49-1c-8.83-.1-17.66,0-26.49-.08a27.7,27.7,0,0,1-3.81-.53Z"/><path class="cls-20" d="M63.4,60.8l.81,0c0,.26,0,.52,0,.79-12.1,0-24.2,0-36.3,0a25.56,25.56,0,0,1-4.11-.69c10.23,0,20.46,0,30.69-.11a33,33,0,0,0,4.18-.56h3.15Z"/><path class="cls-9" d="M80.12,108.24l.77-.58c4.58.07,2.13,2.83,1.82,4.76C82.35,110.72,83.39,108.15,80.12,108.24Z"/><path class="cls-21" d="M63.42,93.38c0,3.53-.09,7.07,0,10.59.08,2.24-.81,3-3,2.94-4.57-.11-9.15,0-13.72,0-.37-1-.42-2.46-1.14-3-3.36-2.34-3.64-4-1-7.27,1.06-1.26,1.92-2.69,2.88-4Z"/><path class="cls-8" d="M52.3,143.41l2.75.34L54.63,145l-2.33-1.61Z"/><path class="cls-8" d="M52.87,132.78c0-.1.07-.28.11-.28a1.39,1.39,0,0,1,.33.1c0,.1-.06.28-.1.28A.93.93,0,0,1,52.87,132.78Z"/><path class="cls-10" d="M44.36,87.83l1.21,1-.25.25-1-1.21Z"/><path class="cls-10" d="M44.36,87v.8h0l-1.76-.16V87.2L44.36,87Z"/><path class="cls-19" d="M84.87,60.22h0Z"/><path class="cls-19" d="M100.72,60.2h0Z"/></g></g></svg>