<svg xmlns="http://www.w3.org/2000/svg" viewBox="0 0 200 200"><defs><style>.cls-1{fill:#1c1a1a;}.cls-2{fill:#181717;}.cls-3{fill:#1b1a1a;}.cls-4{fill:#161414;}.cls-5{fill:#fffcfa;}.cls-6{fill:#fffefd;}.cls-7{fill:#e45127;}.cls-8{fill:#f1672b;}.cls-9{fill:#ebe7e5;}.cls-10{fill:#ebe8e7;}.cls-11{fill:#f1682b;}.cls-12{fill:#e34f26;}</style></defs><title>html</title><g id="Layer_2" data-name="Layer 2"><g id="Layer_1-2" data-name="Layer 1"><path class="cls-1" d="M84.59,14.12l-5,7.59-4.91-7.3-.58.11V24.93H65.9V.05c2.64,0,5.28-.08,7.91.07.59,0,1.27.8,1.67,1.4,1.37,2.06,2.63,4.18,4.17,6.67,1.51-2.41,2.73-4.6,4.22-6.6A4.12,4.12,0,0,1,86.52.12C88.81-.1,91.13.05,93.61.05V25H85.17V14.15Z"/><path class="cls-2" d="M36.11,24.94H27.69v-8.2H20.48v8.1H12V.25h8.34V7.84h7.18V.17h8.59Z"/><path class="cls-3" d="M39.58,8.56V.21H62.27V8.33H55.42V24.86h-8.8V8.56Z"/><path class="cls-4" d="M97.47,24.84V.2h8.39V16.44h11.57v8.4Z"/><path class="cls-5" d="M64.58,137.54c5.22-1.43,10.43-2.91,15.67-4.28,1.46-.39,2.2-.93,2.32-2.63.45-6.1,1.12-12.18,1.76-18.84H64.52q.08-8.07.16-16.13h37.48c-.46,5.84-.87,11.48-1.37,17.11-.87,9.82-1.9,19.63-2.61,29.46-.18,2.54-1.14,3.44-3.47,4.05-9.61,2.51-19.17,5.24-28.75,7.87a9.72,9.72,0,0,1-1.8.14c0-4.73,0-9.47,0-14.2A17.38,17.38,0,0,1,64.58,137.54Z"/><path class="cls-6" d="M64.68,79c-.18-4.87-.37-9.74-.51-14.61a5.66,5.66,0,0,1,.35-1.52c7.7-.06,15.4-.14,23.1-.18,5.74,0,11.49,0,17.56,0-.14,1-.24,1.71-.34,2.45,0,.53-.11,1.06-.16,1.6-.15,1.6-.29,3.21-.43,4.81,0,.36,0,.72-.07,1.07-.18,2.1-.36,4.19-.54,6.39Z"/><path class="cls-7" d="M0,36H129.24c-.49,5.49-1,10.78-1.44,16.07q-2.23,25-4.46,49.91-2.73,30.78-5.43,61.59c-.37,4.21-.33,4.18-4.53,5.34-15.65,4.33-31.28,8.74-47,12.93a12.07,12.07,0,0,1-5.9-.46c-15.5-4.22-30.95-8.6-46.45-12.81a3.11,3.11,0,0,1-2.69-3.24q-2.15-25.77-4.46-51.51C5.11,93.67,3.23,73.5,1.41,53.33.89,47.67.48,42,0,36ZM64.7,137.22c-5.23-1.32-10.43-2.69-15.68-3.92-1.71-.4-2.52-1.06-2.6-3-.15-3.5-.65-7-1-10.48H29.21a3.26,3.26,0,0,0-.18.84c.69,7.78,1.34,15.56,2.17,23.32.07.71,1.21,1.62,2,1.89,2.86,1,5.8,1.64,8.69,2.46q10.86,3.08,21.69,6.18a9.33,9.33,0,0,1,1,2.77c.11,3.82.09,7.65,0,11.47,0,1.74.37,2.45,2.32,1.87,5.16-1.54,10.37-2.9,15.56-4.35,7-1.95,13.9-4,20.88-5.86,4.2-1.12,4.36-1.23,4.51-5.57.14-3.71.31-7.43.63-11.13.62-7.12,1.37-14.23,2-21.35.42-4.66.75-9.33,1.18-14,.65-6.94,1.38-13.87,2-20.81.46-5,.81-10,1.22-15.06q1-11.88,2-23.76c.16-1.75-.53-2.29-2.27-2.28q-23.86.08-47.75,0c-2,0-2.38.73-2.35,2.5.09,4.53,0,9.07,0,13.6l-37.3.15H23.88C25.37,79.31,26.83,95.6,28.3,112h6.25l30.1.14Q64.66,124.67,64.7,137.22Z"/><path class="cls-8" d="M64.65,62.56c0-4.53.08-9.07,0-13.6,0-1.77.39-2.51,2.35-2.5q23.88.1,47.75,0c1.74,0,2.43.53,2.27,2.28q-1,11.88-2,23.76c-.41,5-.76,10-1.22,15.06-.63,6.94-1.36,13.87-2,20.81-.43,4.67-.76,9.34-1.18,14-.66,7.12-1.41,14.23-2,21.35-.32,3.7-.49,7.42-.63,11.13-.15,4.34-.31,4.45-4.51,5.57-7,1.87-13.92,3.91-20.88,5.86-5.19,1.45-10.4,2.81-15.56,4.35-2,.58-2.35-.13-2.32-1.87.06-3.82.08-7.65,0-11.47a9.33,9.33,0,0,0-1-2.77l.55-.24a9.72,9.72,0,0,0,1.8-.14c9.58-2.63,19.14-5.36,28.75-7.87,2.33-.61,3.29-1.51,3.47-4.05.71-9.83,1.74-19.64,2.61-29.46.5-5.63.91-11.27,1.37-17.11H64.68l-1-.22c.34-.66,1-1.31,1-2q.14-6.1,0-12.23c0-.66-.64-1.32-1-2l1-.22h39c.18-2.2.36-4.29.54-6.39l.07-1.07c.14-1.6.28-3.21.43-4.81l.16-1.6.34-2.45c-6.07,0-11.82,0-17.56,0-7.7,0-15.4.12-23.1.18A.63.63,0,0,0,64.65,62.56Z"/><path class="cls-9" d="M64.68,79l-1,.22H43.27L42,79.61l.58,4.9.09,1.22.76,9.38.41.34H63.66l1,.22q-.08,8.07-.16,16.13a.71.71,0,0,1,.13.34L34.55,112H28.3c-1.47-16.39-2.93-32.68-4.42-49.28h3.47l37.3-.15a.63.63,0,0,1-.13.35,5.66,5.66,0,0,0-.35,1.52C64.31,69.3,64.5,74.17,64.68,79Z"/><path class="cls-10" d="M64.16,154.29l-.55.24q-10.84-3.09-21.69-6.18c-2.89-.82-5.83-1.51-8.69-2.46-.82-.27-2-1.18-2-1.89-.83-7.76-1.48-15.54-2.17-23.32a3.26,3.26,0,0,1,.18-.84H45.42c.35,3.5.85,7,1,10.48.08,1.92.89,2.58,2.6,3,5.25,1.23,10.45,2.6,15.68,3.92a3,3,0,0,0-.12.32,17.38,17.38,0,0,0-.42,2.55C64.13,144.82,64.15,149.56,64.16,154.29Z"/><path class="cls-11" d="M64.7,137.22q0-12.56,0-25.09a.71.71,0,0,0-.13-.34H84.33c-.64,6.66-1.31,12.74-1.76,18.84-.12,1.7-.86,2.24-2.32,2.63-5.24,1.37-10.45,2.85-15.67,4.28A3,3,0,0,1,64.7,137.22Z"/><path class="cls-12" d="M43.41,95.11c-.25-3.13-.51-6.25-.76-9.38l-.09-1.22c-.19-1.63-.38-3.27-.58-4.9l1.29-.36H63.65c.34.65,1,1.31,1,2q.14,6.12,0,12.23c0,.67-.63,1.32-1,2H43.82Z"/><path class="cls-9" d="M104.68,66.77c0-.54.11-1.07.16-1.6C104.79,65.7,104.73,66.23,104.68,66.77Z"/><path class="cls-9" d="M104.18,72.65c0-.35,0-.71.07-1.07Z"/><path class="cls-8" d="M43.27,79.25,42,79.61Z"/><path class="cls-8" d="M42.56,84.51l.09,1.22Z"/><path class="cls-8" d="M43.41,95.11l.41.34Z"/></g></g></svg>