<svg xmlns="http://www.w3.org/2000/svg" viewBox="0 0 152 152"><defs><style>.cls-1{fill:#f0dc4f;}.cls-2{fill:#fdfbf0;}.cls-3{fill:#f2e379;}.cls-4{fill:#333431;}.cls-5{fill:#a29641;}.cls-6{fill:#bfb048;}.cls-7{fill:#92883f;}.cls-8{fill:#948940;}</style></defs><title>javascript</title><g id="Layer_2" data-name="Layer 2"><g id="Layer_1-2" data-name="Layer 1"><path class="cls-1" d="M0,151.86V.15H151.86V150.91c0,.31,0,.63,0,.94H0Zm59.23-12h4.21c1.41-.2,2.84-.31,4.23-.61,5.53-1.2,9.86-4.1,12.47-9.24a24.69,24.69,0,0,0,2.38-10.09c0-.5.12-1,.12-1.5q0-24,0-47.9a3.89,3.89,0,0,0-.15-.74H68.36a6.41,6.41,0,0,0-.16,1v41.52q0,3.47,0,6.93c-.06.77-.08,1.53-.17,2.29a6,6,0,0,1-4.7,5.46,15.62,15.62,0,0,1-1.55.21,7.27,7.27,0,0,1-6.25-1.79,27.17,27.17,0,0,1-2.94-3.62c-.42-.57-.73-1.22-1.11-1.86l-11.62,7C43.88,135,50.31,139.29,59.23,139.88Zm54.76,0h4.5c.62,0,1.23-.09,1.85-.16a26.51,26.51,0,0,0,8.34-2.19c6-2.75,9.89-7.29,10.9-13.94a39.08,39.08,0,0,0,.13-5.63,16.66,16.66,0,0,0-1.23-6,18,18,0,0,0-5.64-7.54,43.91,43.91,0,0,0-9.92-5.82c-3-1.37-6.09-2.63-9.06-4.09A13.51,13.51,0,0,1,110.34,92c-2.79-2.71-2.34-8.53,2.26-10.12a10.63,10.63,0,0,1,3.44-.4A7.74,7.74,0,0,1,122,83.93c1,1.06,1.83,2.28,2.79,3.49l10.92-7a1,1,0,0,0-.1-.26c-3.92-7-9.89-10.7-17.88-11.07a30.57,30.57,0,0,0-7.45.39,20.65,20.65,0,0,0-9.69,4.64,17,17,0,0,0-5.43,9,18.53,18.53,0,0,0-.53,6.53,24.86,24.86,0,0,0,1.07,5.56,18.37,18.37,0,0,0,5,7.5,37.24,37.24,0,0,0,10.54,6.43c3.11,1.38,6.25,2.73,9.31,4.23a14.61,14.61,0,0,1,3.38,2.42c2.37,2.19,2.41,6.92-.25,9.08a11.22,11.22,0,0,1-8.6,2.46,18.52,18.52,0,0,1-4.34-.75,13.4,13.4,0,0,1-5.94-4.07c-1-1.18-1.92-2.44-2.92-3.72l-11.5,6.65a25.43,25.43,0,0,0,14,12.56A28,28,0,0,0,114,139.88Z"/><path class="cls-2" d="M151.84,151.85c0-.31,0-.63,0-.94V.15H0S.05,0,.07,0H152V1.12q0,75.12,0,150.23a3.74,3.74,0,0,1-.13.65Z"/><path class="cls-3" d="M151.84,151.85l0,.15H.65a3.74,3.74,0,0,1-.65-.13H151.84Z"/><path class="cls-4" d="M114,139.88a28,28,0,0,1-9.69-1.94,25.43,25.43,0,0,1-14-12.56l11.5-6.65c1,1.28,1.92,2.54,2.92,3.72a13.4,13.4,0,0,0,5.94,4.07,18.52,18.52,0,0,0,4.34.75,11.22,11.22,0,0,0,8.6-2.46c2.66-2.16,2.62-6.89.25-9.08a14.61,14.61,0,0,0-3.38-2.42c-3.06-1.5-6.2-2.85-9.31-4.23a37.24,37.24,0,0,1-10.54-6.43,18.37,18.37,0,0,1-5-7.5,24.86,24.86,0,0,1-1.07-5.56,18.53,18.53,0,0,1,.53-6.53,17,17,0,0,1,5.43-9,20.65,20.65,0,0,1,9.69-4.64,30.57,30.57,0,0,1,7.45-.39c8,.37,14,4.09,17.88,11.07a1,1,0,0,1,.1.26l-10.92,7c-1-1.21-1.8-2.43-2.79-3.49A7.74,7.74,0,0,0,116,81.49a10.63,10.63,0,0,0-3.44.4c-4.6,1.59-5,7.41-2.26,10.12a13.51,13.51,0,0,0,3.52,2.46c3,1.46,6,2.72,9.06,4.09a43.91,43.91,0,0,1,9.92,5.82,18,18,0,0,1,5.64,7.54,16.66,16.66,0,0,1,1.23,6,39.08,39.08,0,0,1-.13,5.63c-1,6.65-4.86,11.19-10.9,13.94a26.51,26.51,0,0,1-8.34,2.19c-.62.07-1.23.11-1.85.16Z"/><path class="cls-4" d="M82.52,119.94A24.69,24.69,0,0,1,80.14,130c-2.61,5.14-6.94,8-12.47,9.24-1.39.3-2.82.41-4.23.61H59.23c-8.92-.59-15.35-4.88-19.36-12.95l11.62-7c.38.64.69,1.29,1.11,1.86a27.17,27.17,0,0,0,2.94,3.62,7.27,7.27,0,0,0,6.25,1.79,15.62,15.62,0,0,0,1.55-.21A6,6,0,0,0,68,121.5c.09-.76.11-1.52.17-2.29,0-.41.13-.83.13-1.25V70.74c0-.32,0-.63,0-.94H82.49c0,.2,0,.39,0,.58v47.9C82.5,118.83,82.52,119.38,82.52,119.94Z"/><path class="cls-5" d="M82.52,119.94c0-.56,0-1.11,0-1.66V70.38c0-.19,0-.38,0-.58a3.89,3.89,0,0,1,.15.74q0,23.94,0,47.9C82.64,118.94,82.57,119.44,82.52,119.94Z"/><path class="cls-6" d="M68.36,69.8c0,.31,0,.62,0,.94V118c0,.42-.09.84-.13,1.25q0-3.46,0-6.93V70.76A6.41,6.41,0,0,1,68.36,69.8Z"/><path class="cls-7" d="M114,139.88h0Z"/><path class="cls-8" d="M59.23,139.88h0Z"/></g></g></svg>