<svg xmlns="http://www.w3.org/2000/svg" viewBox="0 0 140.3 99.5"><defs><style>.cls-1{fill:#24b67f;}.cls-2{fill:#304a61;}.cls-3{fill:#178372;}</style></defs><title>nuxt</title><g id="Layer_2" data-name="Layer 2"><g id="Layer_1-2" data-name="Layer 1"><path class="cls-1" d="M39.61,99.5H0L57.75,0c6.07,10.45,11.89,20.5,17.76,30.53a23.08,23.08,0,0,0,2.26,2.8c0,.18.06.36.08.54A18.35,18.35,0,0,0,76,36.16Q63.62,57.36,51.35,78.59C47.36,85.52,43.52,92.53,39.61,99.5Z"/><path class="cls-2" d="M39.61,99.5c3.91-7,7.75-14,11.74-20.91Q63.59,57.34,76,36.16a18.35,18.35,0,0,1,1.87-2.29,10.47,10.47,0,0,0,.67,1.88c7.75,13.33,15.56,26.63,23.27,40,4.55,7.88,9,15.83,13.44,23.75Z"/><path class="cls-3" d="M115.23,99.48c-4.48-7.92-8.89-15.87-13.44-23.75-7.71-13.35-15.52-26.65-23.27-40a10.47,10.47,0,0,1-.67-1.88c0-.18,0-.36-.08-.54,3.92-6.84,7.83-13.69,12-21L140.3,99.48Z"/></g></g></svg>