<svg xmlns="http://www.w3.org/2000/svg" viewBox="0 0 197.4 103.57"><defs><style>.cls-1{fill:#4b6790;}.cls-2{fill:#4e6c97;}.cls-3{fill:#657fa5;}.cls-4{fill:#58749e;}.cls-5{fill:#7089ac;}.cls-6{fill:#262224;}.cls-7{fill:#475f84;}.cls-8{fill:#486289;}.cls-9{fill:#40516e;}.cls-10{fill:#455c7f;}.cls-11{fill:#dae1ea;}.cls-12{fill:#39445a;}.cls-13{fill:#2a2a31;}.cls-14{fill:#313848;}.cls-15{fill:#435878;}.cls-16{fill:#3d4b65;}.cls-17{fill:#2e313c;}.cls-18{fill:#343d50;}.cls-19{fill:#cfd7e3;}.cls-20{fill:#a0b0c8;}.cls-21{fill:#b8c3d5;}.cls-22{fill:#c5cedd;}.cls-23{fill:#91a4bf;}.cls-24{fill:#abb9ce;}.cls-25{fill:#8599b8;}.cls-26{fill:#7a91b2;}.cls-27{fill:#6282b7;}.cls-28{fill:#f5f5f6;}.cls-29{fill:#07070a;}</style></defs><title>php</title><g id="Layer_2" data-name="Layer 2"><g id="Layer_1-2" data-name="Layer 1"><path class="cls-1" d="M1,58.71c-.25-1.13-.49-2.27-.74-3.4A6.08,6.08,0,0,0,0,54.59V51.34c.34.21.8.35,1,.65.84,1.2,1.58,2.47,2.4,3.68a4.12,4.12,0,0,0,.85.75c.69,2.07,1.26,4.19,2.09,6.21a46,46,0,0,0,2.41,4.54c-.89-.88-1.85-1.69-2.65-2.64-1.55-1.88-3-3.83-4.54-5.74C1.48,58.68,1.18,58.74,1,58.71Z"/><path class="cls-2" d="M4.26,56.42a4.12,4.12,0,0,1-.85-.75C2.59,54.46,1.85,53.19,1,52c-.21-.3-.67-.44-1-.65V48.9c.24-1.13.45-2.26.73-3.38.2-.85.48-1.67.72-2.5a15.15,15.15,0,0,1,1,1.45c.58,1.06,1.12,2.14,1.67,3.21-.07,1.58-.22,3.16-.19,4.74C3.91,53.75,4.13,55.09,4.26,56.42Z"/><path class="cls-3" d="M3.55,38.09l3.71-5.75c.5,1.32,1,2.65,1.48,4L5.7,42c-.34-.79-.64-1.6-1-2.35A12.59,12.59,0,0,0,3.55,38.09Z"/><path class="cls-4" d="M3.55,38.09a12.59,12.59,0,0,1,1.1,1.56c.41.75.71,1.56,1,2.35L4.08,47.68C3.53,46.61,3,45.53,2.41,44.47a15.15,15.15,0,0,0-1-1.45Z"/><path class="cls-5" d="M8.74,36.32c-.49-1.33-1-2.66-1.48-4l3.29-3.81c.21.93.38,1.87.63,2.79a5.39,5.39,0,0,0,.61,1.13Z"/><path class="cls-6" d="M183,24.91c6.7,5.78,11.95,12.51,13.79,21.4a28.22,28.22,0,0,1-3.27,19.83c-3.69,6.72-9.08,11.88-15.24,16.3a91.65,91.65,0,0,1-17.51,9.66,2.46,2.46,0,0,1-.39.09c.29-.61.55-1.25.89-1.83.69-1.17,1.43-2.31,2.15-3.46,2.17-1.16,4.39-2.25,6.52-3.48,6.74-3.89,12.85-8.53,17.56-14.82,7.67-10.26,8-21.85.79-32.4a88.05,88.05,0,0,0-6-7.12,6.44,6.44,0,0,1,.07-1.59C182.62,26.63,182.14,25.59,183,24.91Z"/><path class="cls-7" d="M34.7,91.17c-3.54-1.82-7.15-3.51-10.6-5.49A61.29,61.29,0,0,1,10.33,74.93c-1.1-1.14-2-2.43-3-3.66a4,4,0,0,1,1.15.42c3.18,2.53,6.24,5.25,9.54,7.62a68.65,68.65,0,0,0,16.18,8.27,5.43,5.43,0,0,0,1.41.1l.6.23.41.19c3.75,1.4,7.48,2.83,11.25,4.17,2,.73,4.15,1.29,6.23,1.93-.26.13-.53.39-.79.37a28,28,0,0,1-3.89-.41c-4.11-.84-8.19-1.78-12.29-2.66C36.31,91.34,35.5,91.28,34.7,91.17Z"/><path class="cls-8" d="M35.58,87.68a5.43,5.43,0,0,1-1.41-.1A68.65,68.65,0,0,1,18,79.31c-3.3-2.37-6.36-5.09-9.54-7.62a4,4,0,0,0-1.15-.42,32.58,32.58,0,0,1-5.47-9.58c-.35-1-.57-2-.85-3,.2,0,.5,0,.59.08,1.53,1.91,3,3.86,4.54,5.74.8,1,1.76,1.76,2.65,2.64a1.89,1.89,0,0,1,.29.27,44.31,44.31,0,0,0,7.58,8.37,67.22,67.22,0,0,0,13,8.83C31.61,85.68,33.6,86.67,35.58,87.68Z"/><path class="cls-9" d="M71.14,101.51l-.4,0a4.45,4.45,0,0,1,1.05-.56c2.41-.49,4.84-.92,7.25-1.42a4,4,0,0,0,1.06-.6c1.34.12,2.68.3,4,.36,4.39.17,8.78.3,13.17.46a9.84,9.84,0,0,1,1.09.14c-.13.14-.24.34-.4.42-1.69.77-3.4,1.49-5.08,2.29a5.09,5.09,0,0,0-1,.91c-4.13-.27-8.28-.49-12.41-.85-2.66-.24-5.31-.7-8-1.06Z"/><path class="cls-10" d="M34.7,91.17c.8.11,1.61.17,2.4.33,4.1.88,8.18,1.82,12.29,2.66a28,28,0,0,0,3.89.41c.26,0,.53-.24.79-.37,2.82.66,5.63,1.35,8.46,2,2.46.53,4.93,1,7.4,1.45a5.13,5.13,0,0,1-1.54.62c-3.22.18-6.45.29-9.67.44a5.42,5.42,0,0,0-1,.25c-5.19-1.55-10.41-3-15.57-4.7C39.59,93.39,37.17,92.2,34.7,91.17Z"/><path class="cls-11" d="M48.18,7.27c3.38-.95,6.75-1.93,10.14-2.83,1.61-.42,3.27-.68,4.9-1a5.67,5.67,0,0,0,.92.79c.91.49,1.89.87,2.79,1.38.26.14.38.55.56.84a173.11,173.11,0,0,0-21.75,5.5c-.09-1.19.76-1.95,1.32-2.83C47.44,8.49,47.8,7.88,48.18,7.27Z"/><path class="cls-12" d="M117.49,102.67l-17.68.9a2.5,2.5,0,0,1,.53-.5c1.66-.92,3.35-1.8,5-2.73.18-.11.24-.42.36-.64l16.46-1.39a3.36,3.36,0,0,1-.58.79c-1.12.85-2.29,1.62-3.4,2.49A4.1,4.1,0,0,0,117.49,102.67Z"/><path class="cls-13" d="M163.44,86.9c-.72,1.15-1.46,2.29-2.15,3.46-.34.58-.6,1.22-.89,1.83-4.08,1.49-8.15,3-12.23,4.45-1.06.37-2.16.63-3.24,1,0-.24-.05-.54.07-.69.52-.65,1.13-1.23,1.63-1.88s1.05-1.49,1.56-2.24c.7-.24,1.41-.46,2.09-.73Z"/><path class="cls-14" d="M137.85,99.36q-5.53,1.08-11.08,2.14c-.63.12-1.27.15-1.9.23l-.82-.22c.76-.63,1.4-1.1,2-1.64.84-.79,1.63-1.62,2.44-2.43h0a.35.35,0,0,0,.17-.06l1-.15.42-.13,11.41-2.46a3.57,3.57,0,0,1-.4.75c-1,1.17-2.1,2.32-3.14,3.5C137.86,99,137.88,99.2,137.85,99.36Z"/><path class="cls-15" d="M57.7,98.92a5.42,5.42,0,0,1,1-.25c3.22-.15,6.45-.26,9.67-.44a5.13,5.13,0,0,0,1.54-.62L80.1,98.89a4,4,0,0,1-1.06.6c-2.41.5-4.84.93-7.25,1.42a4.45,4.45,0,0,0-1.05.56c-3.12-.55-6.26-1.08-9.38-1.67C60.13,99.57,58.92,99.22,57.7,98.92Z"/><path class="cls-16" d="M105.71,99.7c-.12.22-.18.53-.36.64-1.66.93-3.35,1.81-5,2.73a2.5,2.5,0,0,0-.53.5l-7.92-.1a5.09,5.09,0,0,1,1-.91c1.68-.8,3.39-1.52,5.08-2.29.16-.08.27-.28.4-.42Z"/><path class="cls-13" d="M183,24.91c-.88.68-.4,1.72-.65,2.58a6.44,6.44,0,0,0-.07,1.59l-6.06-4.95c0-1.32-.24-2.71.63-3.9Z"/><path class="cls-17" d="M176.87,20.23c-.87,1.19-.58,2.58-.63,3.9l-6.3-4.05.2-4Z"/><path class="cls-17" d="M137.85,99.36c0-.16,0-.37.1-.47,1-1.18,2.1-2.33,3.14-3.5a3.57,3.57,0,0,0,.4-.75l6.7-1.86c-.51.75-1,1.52-1.56,2.24s-1.11,1.23-1.63,1.88c-.12.15-.05.45-.07.69Z"/><path class="cls-9" d="M142.51,5.41l6.7,1.89.18,3.88-6.68-1.92Z"/><path class="cls-18" d="M128.47,97.44c-.81.81-1.6,1.64-2.44,2.43-.58.54-1.22,1-2,1.64l.82.22-6.5.81-.45.07-.43.06a4.1,4.1,0,0,1,.7-1.08c1.11-.87,2.28-1.64,3.4-2.49a3.36,3.36,0,0,0,.58-.79Z"/><path class="cls-19" d="M48.18,7.27c-.38.61-.74,1.22-1.12,1.83-.56.88-1.41,1.64-1.32,2.83l-5.22,1.88c-.79-.36-.26-.94-.18-1.39.18-.92.47-1.81.72-2.71Z"/><path class="cls-12" d="M154.38,9.05l5.8,2.28.21,4-5.9-2.4a8.67,8.67,0,0,1-.13-.89C154.36,11.05,154.37,10.05,154.38,9.05Z"/><path class="cls-2" d="M121,1.36l5.66.77a5.93,5.93,0,0,0,0,1c.11.9.28,1.8.43,2.71L121,5c-.21-1-.42-1.95-.6-2.93C120.25,1.61,120.48,1.35,121,1.36Z"/><path class="cls-19" d="M67.49,6.43c-.18-.29-.3-.7-.56-.84-.9-.51-1.88-.89-2.79-1.38a5.67,5.67,0,0,1-.92-.79L69.93,2.2c.43.49.86,1,1.3,1.45s1.44.93,1.34,2Z"/><path class="cls-20" d="M21.73,19.43l5.5-3.27a5.78,5.78,0,0,0,.21,3.91l-4.87,3a11.18,11.18,0,0,1-.4-1.28C22,21,21.87,20.23,21.73,19.43Z"/><path class="cls-15" d="M142.51,5.41c.06,1.29.13,2.57.2,3.85l-5.5-1.38L136.81,4Z"/><path class="cls-21" d="M75.83,1.39l5.69-.6c.15.32.29.66.47,1,.5.88,1,1.76,1.55,2.64l-5.46.48L77,3.29Z"/><path class="cls-20" d="M86.4.39,92.1.08c.09.3.17.61.28.91.37.94.75,1.88,1.13,2.83L88,4a8.78,8.78,0,0,0-.37-1.13C87.25,2.05,86.82,1.22,86.4.39Z"/><path class="cls-22" d="M75.83,1.39,77,3.29l1,1.59-5.51.74c.1-1-.8-1.38-1.34-2s-.87-1-1.3-1.45Z"/><path class="cls-8" d="M127,5.87c-.15-.91-.32-1.81-.43-2.71a5.93,5.93,0,0,1,0-1l5.27.89.6,3.85Z"/><path class="cls-14" d="M170.14,16.07l-.2,4-4.89-2.62a5.51,5.51,0,0,1-.1-.89c0-1,.09-2.05.14-3.08l.18.1.28.15Z"/><path class="cls-21" d="M31.07,14.15l5.52-2.61c-.14,1.37-.27,2.73-.4,4.09l-4.66,2.21c0-.68-.06-1.36-.14-2S31.18,14.7,31.07,14.15Z"/><path class="cls-23" d="M21.73,19.43c.14.8.26,1.61.44,2.4a11.18,11.18,0,0,0,.4,1.28l-4.48,3.27-.83-3.76Z"/><path class="cls-16" d="M154.38,9.05c0,1,0,2,0,3a8.67,8.67,0,0,0,.13.89l-5.1-1.76-.18-3.88Z"/><path class="cls-23" d="M93.51,3.82c-.38-.95-.76-1.89-1.13-2.83-.11-.3-.19-.61-.28-.91L97,0c.12.27.25.54.35.82.36,1,.71,2,1.06,3Z"/><path class="cls-18" d="M165.09,13.49c-.05,1-.11,2-.14,3.08a5.51,5.51,0,0,0,.1.89l-4.66-2.12-.21-4Z"/><path class="cls-7" d="M132.53,6.88,131.93,3l4.88,1,.4,3.85Z"/><path class="cls-3" d="M110.59.39c1.13.06,2.26.1,3.38.18.5,0,1,.14,1.49.21.08.39.14.78.22,1.16.19.9.4,1.79.6,2.68l-4.88-.4c-.05-.29-.07-.59-.13-.87C111.05,2.36,110.81,1.37,110.59.39Z"/><path class="cls-24" d="M86.4.39c.42.83.85,1.66,1.25,2.51A8.78,8.78,0,0,1,88,4l-4.48.37C83,3.52,82.49,2.64,82,1.76c-.18-.31-.32-.65-.47-1Z"/><path class="cls-4" d="M116.28,4.62c-.2-.89-.41-1.78-.6-2.68-.08-.38-.14-.77-.22-1.16l5.54.58c-.52,0-.75.25-.65.75.18,1,.39,2,.6,2.93Z"/><path class="cls-24" d="M31.07,14.15c.11.55.26,1.1.32,1.66s.1,1.35.14,2l-4.09,2.23a5.78,5.78,0,0,1-.21-3.91Z"/><path class="cls-25" d="M98.38,3.8c-.35-1-.7-2-1.06-3C97.22.54,97.09.27,97,0l4.88,0c.13.57.23,1.15.39,1.72s.41,1.38.62,2.07Z"/><path class="cls-5" d="M110.59.39c.22,1,.46,2,.68,3,.06.28.08.58.13.87L106.92,4l-1-3.84Z"/><path class="cls-25" d="M17.26,22.62c.28,1.25.55,2.5.83,3.76l-3.45,3a5.28,5.28,0,0,1-.41-.87c-.23-1-.42-1.94-.63-2.91Z"/><path class="cls-22" d="M36.19,15.63c.13-1.36.26-2.72.4-4.09l4.47-1.83c-.25.9-.54,1.79-.72,2.71-.08.45-.61,1,.18,1.39Z"/><path class="cls-26" d="M105.91.17l1,3.84-4.06-.2c-.21-.69-.44-1.37-.62-2.07S102,.59,101.85,0Z"/><path class="cls-26" d="M13.6,25.63c.21,1,.4,1.94.63,2.91a5.28,5.28,0,0,0,.41.87l-2.85,3a5.39,5.39,0,0,1-.61-1.13c-.25-.92-.42-1.86-.63-2.79Z"/><path class="cls-15" d="M71.14,101.51l.37,0Z"/><path class="cls-12" d="M117.92,102.61l.45-.07Z"/><path class="cls-18" d="M165.55,13.74l-.28-.15Z"/><path class="cls-27" d="M11.79,32.45l2.85-3,3.45-3,4.48-3.27,4.87-3,4.09-2.23,4.66-2.21,4.33-1.82,5.22-1.88a173.11,173.11,0,0,1,21.75-5.5l5.08-.81,5.51-.74,5.46-.48L88,4l5.49-.21,4.87,0h4.48l4.06.2,4.48.21,4.88.4L121,5l6.09.83,5.49,1,4.68,1,5.5,1.38,6.68,1.92,5.1,1.76,5.9,2.4,4.66,2.12,4.89,2.62,6.3,4.05,6.06,4.95a88.05,88.05,0,0,1,6,7.12c7.23,10.55,6.88,22.14-.79,32.4C182.81,74.89,176.7,79.53,170,83.42c-2.13,1.23-4.35,2.32-6.52,3.48l-13.16,5.15c-.68.27-1.39.49-2.09.73l-6.7,1.86L130.08,97.1l-.42.13-1,.14-.17.07h0l-6.3.87L105.71,99.7l-7.32.15a9.84,9.84,0,0,0-1.09-.14c-4.39-.16-8.78-.29-13.17-.46-1.35-.06-2.69-.24-4-.36L69.93,97.61c-2.47-.48-4.94-.92-7.4-1.45-2.83-.61-5.64-1.3-8.46-2-2.08-.64-4.18-1.2-6.23-1.93-3.77-1.34-7.5-2.77-11.25-4.17l-.41-.19-.6-.23c-2-1-4-2-5.93-3a67.22,67.22,0,0,1-13-8.83,44.31,44.31,0,0,1-7.58-8.37,1.89,1.89,0,0,0-.29-.27,46,46,0,0,1-2.41-4.54c-.83-2-1.4-4.14-2.09-6.21-.13-1.33-.35-2.67-.37-4,0-1.58.12-3.16.19-4.74L5.7,42l3-5.68Zm69,7.44a5.76,5.76,0,0,1-.28-.65,14,14,0,0,0-8.19-10,23.29,23.29,0,0,0-10.07-2c-7.18-.06-14.36,0-21.54,0-1.46,0-2,.42-2.22,1.83q-.95,4.81-1.87,9.64-4,20.73-8,41.46c-.3,1.56.24,2.25,1.81,2.26H40.56c1.83,0,2.17-.28,2.51-2,.69-3.58,1.4-7.16,2.07-10.74.13-.73.45-1,1.21-1,4.22,0,8.46-.06,12.68-.31a21.94,21.94,0,0,0,16-8.17c.83-1,1.58-2,2.44-3.13a2.55,2.55,0,0,1,0,.43c-.57,3-1.14,5.9-1.73,8.84-.33,1.7.25,2.43,2,2.43,3.38,0,6.77,0,10.16,0,1.39,0,1.92-.44,2.18-1.75q.52-2.77,1.06-5.57,2.11-10.87,4.27-21.76c0-.26.42-.67.63-.67,3.25,0,6.51,0,9.75.2,2.09.14,2.64,1.08,2.32,3.19-.25,1.56-.54,3.12-.84,4.68-1.25,6.53-2.52,13.06-3.77,19.59-.28,1.49.29,2.12,1.83,2.12h10c2,0,2.48-.41,2.85-2.35,1.19-6.17,2.43-12.32,3.58-18.49.61-3.22,1.49-6.39,1.34-9.72-.19-4.29-2.1-7.39-6.1-9.12a23.58,23.58,0,0,0-8.81-1.72c-3.07-.09-6.16,0-9.24,0-.35,0-.71,0-1.09-.05,0-.28,0-.45,0-.62q1.07-5.46,2.14-10.93c.29-1.54-.28-2.24-1.84-2.25H87.65c-1.32,0-1.79.38-2,1.63-1,5-1.92,9.94-2.89,14.91C82.11,33.27,81.47,36.46,80.79,39.89ZM140,27.37v-.13H129.86c-2.31,0-2.57.27-3,2.5q-2.77,14.46-5.59,28.92-2.1,10.78-4.18,21.57c-.29,1.5.31,2.17,1.83,2.17h10.46c1.37,0,1.87-.45,2.13-1.8.73-3.71,1.5-7.41,2.18-11.13.14-.77.45-.88,1.12-.88,4.1,0,8.2,0,12.28-.23a20.91,20.91,0,0,0,10.4-3.08c8.7-5.56,12.53-13.65,12-23.82a13.54,13.54,0,0,0-5.39-10.29,18.45,18.45,0,0,0-11-3.76C148.69,27.26,144.35,27.37,140,27.37Z"/><path class="cls-8" d="M36.18,87.91l.41.19Z"/><path class="cls-18" d="M129.66,97.23l.42-.13Z"/><path class="cls-18" d="M128.47,97.44l.17-.07A.28.28,0,0,1,128.47,97.44Z"/><path class="cls-28" d="M80.79,39.89c.68-3.43,1.32-6.62,1.94-9.82,1-5,1.92-9.94,2.89-14.91.24-1.25.71-1.63,2-1.63H98.12c1.56,0,2.13.71,1.84,2.25Q98.9,21.25,97.82,26.7c0,.17,0,.34,0,.62.38,0,.74.05,1.09.05,3.08,0,6.17-.05,9.24,0a23.58,23.58,0,0,1,8.81,1.72c4,1.73,5.91,4.83,6.1,9.12.15,3.33-.73,6.5-1.34,9.72-1.15,6.17-2.39,12.32-3.58,18.49-.37,1.94-.85,2.35-2.85,2.35h-10c-1.54,0-2.11-.63-1.83-2.12,1.25-6.53,2.52-13.06,3.77-19.59.3-1.56.59-3.12.84-4.68.32-2.11-.23-3.05-2.32-3.19-3.24-.22-6.5-.18-9.75-.2-.21,0-.58.41-.63.67Q93.2,50.58,91.09,61.46,90.55,64.25,90,67c-.26,1.31-.79,1.75-2.18,1.75-3.39,0-6.78,0-10.16,0-1.74,0-2.32-.73-2-2.43.59-2.94,1.16-5.89,1.73-8.84a2.55,2.55,0,0,0,0-.43c-.86,1.1-1.61,2.15-2.44,3.13a21.94,21.94,0,0,1-16,8.17c-4.22.25-8.46.26-12.68.31-.76,0-1.08.24-1.21,1-.67,3.58-1.38,7.16-2.07,10.74-.34,1.76-.68,2-2.51,2H30.4c-1.57,0-2.11-.7-1.81-2.26q4-20.73,8-41.46.93-4.83,1.87-9.64c.27-1.41.76-1.83,2.22-1.83,7.18,0,14.36,0,21.54,0a23.29,23.29,0,0,1,10.07,2,14,14,0,0,1,8.19,10A5.76,5.76,0,0,0,80.79,39.89ZM41.41,80.78,44.1,67.14c5.11-.12,10-.14,14.91-.4a19.21,19.21,0,0,0,9.79-3.2c7.61-5.1,11-12.35,10.67-21.4a12.59,12.59,0,0,0-7.76-11.52A20.75,20.75,0,0,0,63,28.85c-7.38-.07-14.76,0-22.14,0-.52,0-.76.11-.87.69q-1.59,8.39-3.24,16.76Q34.3,59.1,31.79,72c-.57,2.93-1.13,5.86-1.7,8.83ZM94.29,37.3c3.52,0,6.94,0,10.35,0a10.39,10.39,0,0,1,2.59.43A3.09,3.09,0,0,1,109.75,41a9,9,0,0,1-.11,2q-1.94,10.08-3.89,20.15c-.25,1.27-.46,2.54-.7,3.85h11.38c.66-3.41,1.35-6.81,2-10.21,1-5.46,2.23-10.9,3-16.4.69-5.05-1.23-8.69-6-10.25A22.17,22.17,0,0,0,109.76,29c-4.22-.2-8.46-.16-12.69-.22-.37,0-.73,0-1.14,0,.9-4.65,1.78-9.19,2.68-13.8-3.63,0-7.12,0-10.6,0a1.08,1.08,0,0,0-.77.64C86.12,21.3,85,26.93,84,32.55q-2.27,11.76-4.56,23.52C78.69,59.69,78,63.31,77.27,67H88.53Q91.42,52.08,94.29,37.3Z"/><path class="cls-28" d="M140,27.37c4.33,0,8.67-.11,13,0a18.45,18.45,0,0,1,11,3.76,13.54,13.54,0,0,1,5.39,10.29c.56,10.17-3.27,18.26-12,23.82a20.91,20.91,0,0,1-10.4,3.08c-4.08.2-8.18.19-12.28.23-.67,0-1,.11-1.12.88-.68,3.72-1.45,7.42-2.18,11.13-.26,1.35-.76,1.8-2.13,1.8H118.92c-1.52,0-2.12-.67-1.83-2.17q2.07-10.78,4.18-21.57,2.79-14.46,5.59-28.92c.43-2.23.69-2.49,3-2.5H140Zm-10.18,53.4c.91-4.6,1.81-9.18,2.69-13.63,5.07-.12,10-.14,14.87-.4a19.16,19.16,0,0,0,9.8-3.18c7.58-5.06,11-12.27,10.7-21.28-.21-5.69-3.08-9.7-8.38-11.92a20.67,20.67,0,0,0-7.91-1.5c-7.44-.08-14.89,0-22.34-.05-.49,0-.71.12-.81.64-.79,4.21-1.61,8.41-2.43,12.6q-2.28,11.81-4.59,23.61l-2.92,15.11Z"/><path class="cls-29" d="M41.41,80.78H30.09c.57-3,1.13-5.9,1.7-8.83q2.51-12.84,5-25.69Q38.43,37.88,40,29.5c.11-.58.35-.69.87-.69,7.38,0,14.76,0,22.14,0a20.75,20.75,0,0,1,8.67,1.77,12.59,12.59,0,0,1,7.76,11.52c.38,9-3.06,16.3-10.67,21.4A19.21,19.21,0,0,1,59,66.74c-4.89.26-9.8.28-14.91.4ZM45.68,59c4.06-.22,8-.26,11.94-.7a9.7,9.7,0,0,0,7.63-4.92,19.64,19.64,0,0,0,2.44-8.89c.25-4.87-2.2-6.82-6.49-7.15-3.69-.27-7.43,0-11.28,0C48.55,44.34,47.15,51.53,45.68,59Z"/><path class="cls-29" d="M94.29,37.3Q91.41,52.09,88.53,67H77.27c.71-3.65,1.42-7.27,2.12-10.89Q81.67,44.31,84,32.55C85,26.93,86.12,21.3,87.24,15.69a1.08,1.08,0,0,1,.77-.64c3.48,0,7,0,10.6,0-.9,4.61-1.78,9.15-2.68,13.8.41,0,.77,0,1.14,0,4.23.06,8.47,0,12.69.22a22.17,22.17,0,0,1,5.64,1.09c4.78,1.56,6.7,5.2,6,10.25-.76,5.5-2,10.94-3,16.4-.64,3.4-1.33,6.8-2,10.21H105.05c.24-1.31.45-2.58.7-3.85q1.94-10.06,3.89-20.15a9,9,0,0,0,.11-2,3.09,3.09,0,0,0-2.52-3.23,10.39,10.39,0,0,0-2.59-.43C101.23,37.28,97.81,37.3,94.29,37.3Z"/><path class="cls-29" d="M129.84,80.77H118.52l2.92-15.11q2.3-11.8,4.59-23.61c.82-4.19,1.64-8.39,2.43-12.6.1-.52.32-.64.81-.64,7.45,0,14.9,0,22.34.05a20.67,20.67,0,0,1,7.91,1.5c5.3,2.22,8.17,6.23,8.38,11.92.34,9-3.12,16.22-10.7,21.28a19.16,19.16,0,0,1-9.8,3.18c-4.89.26-9.8.28-14.87.4C131.65,71.59,130.75,76.17,129.84,80.77ZM138.41,37l-4.24,21.71A48.78,48.78,0,0,0,147.61,58,9.92,9.92,0,0,0,154,52.89a20.39,20.39,0,0,0,2.16-8.35c.26-4.86-2.17-6.8-6.47-7.18C146,37,142.22,37.11,138.41,37Z"/><path class="cls-28" d="M45.68,59c1.47-7.5,2.87-14.69,4.24-21.71,3.85,0,7.59-.22,11.28,0,4.29.33,6.74,2.28,6.49,7.15a19.64,19.64,0,0,1-2.44,8.89,9.7,9.7,0,0,1-7.63,4.92C53.7,58.77,49.74,58.81,45.68,59Zm1.93-1.8c3.65,0,7.24.27,10.77-.63a8.11,8.11,0,0,0,6.07-5.16A26.08,26.08,0,0,0,66,45.09c.39-4.31-.62-5.63-4.91-6.16a76.14,76.14,0,0,0-9.32-.21c-.25,0-.64.51-.72.84-.42,1.94-.77,3.9-1.15,5.86C49.14,49.32,48.39,53.23,47.61,57.23Z"/><path class="cls-28" d="M138.41,37c3.81.1,7.54,0,11.24.35,4.3.38,6.73,2.32,6.47,7.18A20.39,20.39,0,0,1,154,52.89,9.92,9.92,0,0,1,147.61,58a48.78,48.78,0,0,1-13.44.71ZM136,57.18c2.48,0,4.85.06,7.21,0a20.6,20.6,0,0,0,3.3-.52A8.49,8.49,0,0,0,153,51.22a19.41,19.41,0,0,0,1.5-7.09c0-3.3-1.14-4.83-4.43-5.13s-6.56-.25-9.84-.29c-.25,0-.67.4-.75.69-.26,1-.4,2-.6,3Z"/><path class="cls-27" d="M47.61,57.23c.78-4,1.53-7.91,2.29-11.81.38-2,.73-3.92,1.15-5.86.08-.33.47-.84.72-.84a76.14,76.14,0,0,1,9.32.21c4.29.53,5.3,1.85,4.91,6.16a26.08,26.08,0,0,1-1.55,6.35,8.11,8.11,0,0,1-6.07,5.16C54.85,57.5,51.26,57.18,47.61,57.23Z"/><path class="cls-27" d="M136,57.18l2.87-14.81c.2-1,.34-2,.6-3,.08-.29.5-.7.75-.69,3.28,0,6.58,0,9.84.29s4.46,1.83,4.43,5.13a19.41,19.41,0,0,1-1.5,7.09,8.49,8.49,0,0,1-6.48,5.42,20.6,20.6,0,0,1-3.3.52C140.89,57.24,138.52,57.18,136,57.18Z"/></g></g></svg>