<svg xmlns="http://www.w3.org/2000/svg" viewBox="0 0 131.13 119.73"><defs><style>.cls-1{fill:#3ac6f3;}.cls-2{fill:#37c6f4;}</style></defs><title>react</title><g id="Layer_2" data-name="Layer 2"><g id="Layer_1-2" data-name="Layer 1"><path class="cls-1" d="M27.72,5.75l.86-1.14A13.57,13.57,0,0,1,37,.17c1-.1,2-.09,3-.13a36,36,0,0,1,11.36,3.8c2.7,1.89,5.46,3.7,8.07,5.71,2.12,1.63,4,3.5,6.08,5.3A75.39,75.39,0,0,1,79.83,3.69,30.94,30.94,0,0,1,89.43.23L91.24,0C93.6,0,96,0,98.13,1.24c1.47.91,2.8,2.05,4.19,3.09l1.14,1.42L106,11.47l.93,5.67c0,1.9,0,3.79,0,5.69l-.57,5.7-1.13,5.69c-.18.76-.37,1.51-.58,2.36l3.68,1.06L114,39.91l.82.35,4.87,2.54c.57.41,1.14.83,1.72,1.22,4.76,3.19,8.53,7.13,9.71,13-.07,1.37,0,2.74-.23,4.09-.39,2.8-2,5-3.58,7.28l-1.93,2-4.53,3.46-1.18.77L114,77.5l-5.11,2-.59.22L104.07,81l1.15,4.5,1.11,5.69.58,5.7,0,5.7-1,5.64L103.44,114l-.83,1.09a13.58,13.58,0,0,1-11.37,4.65A32.14,32.14,0,0,1,79.84,116,71.91,71.91,0,0,1,65.71,104.9c-3.24,2.66-6.3,5.27-9.46,7.74-1.67,1.3-3.53,2.37-5.3,3.55-2.78,1-5.56,2-8.35,3a17.85,17.85,0,0,1-2.64.51,13.83,13.83,0,0,1-8-1.8,39.39,39.39,0,0,1-3.34-2.6L27.66,114c-.85-1.89-1.69-3.79-2.54-5.68q-.45-2.86-.91-5.71c0-1.89-.05-3.79-.08-5.68l.53-5.67,1.05-5.73,1.18-4.56-4-1.16a.19.19,0,0,0-.18,0L17.19,77.5l-5.67-2.93-.84-.49L5.8,70.37l-1.93-2C1.29,65-.36,61.37.07,57a16.78,16.78,0,0,1,5.44-9.52c1.92-1.66,4-3.14,6-4.69L17,40a.41.41,0,0,0,.21-.05l5.68-2.27c3.7-.88,3.7-.88,3-3.48a.7.7,0,0,0-.15-.23c-.31-1.8-.62-3.59-.92-5.39l-.57-5.7V17.14l.9-5.7C26,9.54,26.87,7.65,27.72,5.75ZM74.15,37.4l-4-.07-1.74-.16H62.76l-5.71.24c-2.07-.26-3.62.38-4.34,2.48l-7,11.42-3,5.65a8.69,8.69,0,0,0-.82,1.45,4,4,0,0,0-.43,2A12.87,12.87,0,0,0,42.77,63l2.87,5.4C47.82,72,50,75.61,52.21,79.17a2,2,0,0,0,1.43.6c3,.22,5.94.43,8.91.51,2.06,0,4.13-.11,6.19-.18l.85,0c2.69-.09,5.39-.17,8.08-.3a1.49,1.49,0,0,0,1-.57c2.22-3.58,4.4-7.19,6.59-10.78l.27-.54c.87-1.71,1.73-3.43,2.6-5.15,1.7-2,1.82-2.82.72-5-.17-.34-.37-.66-.56-1l-2.78-5.17a.43.43,0,0,0-.09-.26l-7-11.4A3.53,3.53,0,0,0,74.15,37.4Zm45.59,12.68L114,46.49a56.84,56.84,0,0,0-10.86-4.3c-1.07,3.15-2.09,6.13-3.1,9.12L97.69,57a4.53,4.53,0,0,0-.12,5.73c.82,1.9,1.63,3.81,2.45,5.71s1.37,4.09,2.13,6.1a1.25,1.25,0,0,0,1,.65c1.08-.27,2.12-.7,3.17-1.07l2.34-.82L114,70.92l4.26-2.52,1.47-1.08,4.31-4.59a6.58,6.58,0,0,0,1-5.71,10.83,10.83,0,0,0-3.91-5.72Zm-20-38.63L97.23,7.71a6.44,6.44,0,0,0-6-1.7L85.53,7.52a42.57,42.57,0,0,0-11.42,7.56l-2.29,2-2.25,2,.59.73c3,3.66,6,7.29,9,11a3,3,0,0,0,2.18,1.32l4.23.33,5.71.86c2.25.48,4.49,1,6.76,1.41.31.06.71-.35,1.07-.54.41-1.9.81-3.8,1.22-5.7.19-1.89.39-3.79.58-5.68v-5.7Zm-68.76,57,2.42-5.73c1.22-1.88,1.57-3.78.06-5.69l-2.32-5.7c-1.05-3-2.11-6-3.2-9.16l-5,1.8-3.77,1.64-2.24,1.13h0L16.3,47l-3.74,2.32-.5.32c-.65.51-1.34,1-2,1.54a11.41,11.41,0,0,0-4,5.86,6.42,6.42,0,0,0,1,5.73l4.33,4.57,1.64,1.14,4.08,2.47,5.68,2.53,2,.65c1,.34,1.93.74,2.92,1a1.16,1.16,0,0,0,1-.52C29.56,72.54,30.24,70.48,30.94,68.43Zm68.8,39.84c.39-1.9.77-3.79,1.16-5.69,0-1.9,0-3.8,0-5.7l-.59-5.69-1.69-8.75-7.4,1.62a49.81,49.81,0,0,1-6.17.79A5.25,5.25,0,0,0,79.9,88a.57.57,0,0,0,0,.14l-2,2.76-8.21,9.86c1.08,1,2.14,2,3.24,3a46.85,46.85,0,0,0,12.67,8.52l5.66,1.57A6.57,6.57,0,0,0,97,112.34,7.56,7.56,0,0,0,99.74,108.27Zm-68.3,0a7,7,0,0,0,2.81,4c1.65,1.51,3.66,1.5,5.71,1.34l5.7-1.68c.61-.26,1.23-.48,1.81-.79a53.65,53.65,0,0,0,11.78-8.62c.7-.67,1.41-1.33,1.92-1.81-3.91-5.07-7.7-10-11.5-14.88a1.52,1.52,0,0,0-.85-.63c-3-.43-5.9-.8-8.85-1.18-2.14-.48-4.28-1-6.44-1.38a1.43,1.43,0,0,0-1.17.78c-.58,2.56-1,5.14-1.53,7.72l-.72,5.69.13,5.72Zm-.05-96.84-1.2,5.68-.13,5.73.69,5.74q.6,2.82,1.18,5.66c.23.22.51.67.69.64,2.46-.47,4.9-1,7.35-1.52l5.7-.87c1.45-.12,2.92-.17,4.36-.4a2.7,2.7,0,0,0,1.45-.94c1.52-1.87,3-3.82,4.47-5.69C57.7,23.3,59.51,21.2,61.41,19a76,76,0,0,0-6.14-5.33c-3.08-2.16-6.38-4-9.59-6L40,6a6.68,6.68,0,0,0-5.74,1.34A7.26,7.26,0,0,0,31.39,11.43ZM68.45,31.34h4l-6.88-8.18-6.83,8.17h9.76ZM35.32,74.07l-1.09,2.81L40,78l4.92.78L38,66.64Zm56.3,3.82,5.26-1-1.1-2.81L93.1,66.67l-7,12.24ZM45.44,39.94l.82-1.21-.21-.42L33.5,40.58c.66,1.84,1.23,3.46,1.81,5.07l2.61,7.26C40.55,48.37,43,44.16,45.44,39.94Zm50.29,5.67,1.68-5.08L84.18,38.14l1.31,1.8L93,52.9C94,50.3,94.86,48,95.73,45.61Zm-33,40.48-6.21-.32,8.92,10.81,8.87-10.79-5.88.3Z"/><path class="cls-2" d="M74.15,71.29q-8.55,5.71-17.1,0c-1-1-1.93-1.93-2.89-2.89q-5.69-8.55,0-17.1l2.9-2.91q8.55-5.65,17.1,0l3.15,3.18a15.82,15.82,0,0,1,2.58,9.13l-.07,1.14a.43.43,0,0,0,0,.25q-1.28,3.12-2.54,6.24h0l-.43.35Z"/></g></g></svg>