<svg xmlns="http://www.w3.org/2000/svg" viewBox="0 0 122.31 106.22"><defs><style>.cls-1{fill:#43b683;}.cls-2{fill:#364a5e;}</style></defs><title>vue</title><g id="Layer_2" data-name="Layer 2"><g id="Layer_1-2" data-name="Layer 1"><path class="cls-1" d="M61.22,106.22H61l-1.48-2.73-1.54-2.72L57,99.32,56.33,98l-3.25-5.65-1.5-2.57L50,87.14l-1.18-2-.41-.75L45.3,78.94l-3.14-5.45L40.68,71l-.1-.22L37.44,65.3l-3.16-5.46-4.8-8.33-3.15-5.42L23.2,40.62l-3.08-5.33L18.81,33l-.26-.42-3.14-5.45-3.14-5.46-1.6-2.75a.12.12,0,0,0-.05-.11l-.25-.42L7.53,13.5,4.39,8.05,1.24,2.6,0,.3A2.52,2.52,0,0,1,.8,0Q12.55,0,24.29,0h.11a5.27,5.27,0,0,0,.22.49L34,16.67,59.18,60.4c.61,1.05,1.22,2.1,1.88,3.22.17-.25.3-.41.4-.58Q70.13,48,78.82,33L94,6.58c1.23-2.13,2.43-4.26,3.64-6.39l.2-.18h24.43L120.92,2.6c-1,1.82-2.09,3.63-3.14,5.45l-.92,1.51-.57,1-1.66,2.89-3.14,5.43-1.59,2.76-1.24,2.18L106.86,27l-3.25,5.64-.39.69-1.21,2c-1,1.76-2,3.53-3,5.29l-3.24,5.61L95,47.46l-.86,1.48-1.48,2.57-4.81,8.33L84.74,65.3l-3.15,5.44L81.5,71c-.5.84-1,1.68-1.49,2.53l-3.15,5.45-3.14,5.45-.48.84-1.12,1.9-1.53,2.69L69,92.58,65.84,98q-1.57,2.73-3.14,5.46a8.64,8.64,0,0,0-.55.84C61.83,105,61.53,105.59,61.22,106.22Z"/><path class="cls-2" d="M24.4,0,46.94,0l4.68,8.05a2.69,2.69,0,0,0,.2.27l1.25,2.19.13.22,0,0,1.05,1.79.55.95L58,19l3.12,5.52L64.2,19l0,0,0,0v-.05l3.09-5.35.55-.95,1-1.78,1.4-2.46L74.86.57c.12-.19.24-.38.37-.57L96.78,0a4.75,4.75,0,0,1,.9.17C96.47,2.32,95.27,4.45,94,6.58L78.82,33Q70.14,48,61.46,63c-.1.17-.23.33-.4.58-.66-1.12-1.27-2.17-1.88-3.22L34,16.67,24.62.51A5.27,5.27,0,0,1,24.4,0Z"/></g></g></svg>