<svg xmlns="http://www.w3.org/2000/svg" viewBox="0 0 315.64 318.05"><defs><style>.cls-1{opacity:0.5;}.cls-2,.cls-5{fill:#231f20;}.cls-3,.cls-4{fill:none;stroke:#231f20;stroke-linecap:round;stroke-miterlimit:10;}.cls-3{stroke-width:1.07px;}.cls-4{stroke-width:0.81px;}.cls-5{font-size:19.52px;font-family:Hack-BoldItalic, Hack;font-weight:700;font-style:italic;}.cls-6{fill:#3a4da1;}.cls-7{fill:#3cb656;}.cls-8{fill:#bc2a56;}</style></defs><title>techstack</title><g id="Layer_2" data-name="Layer 2"><g id="Layer_2-2" data-name="Layer 2"><g class="cls-1"><path class="cls-2" d="M187.28,230.63v5.94H123.85l.15-6a12.68,12.68,0,0,1,12.58-12.36l7.81-.06V198.69l21.7.67.65,18.65,7.77,0A12.66,12.66,0,0,1,187.28,230.63Z"/><path class="cls-2" d="M214.43,84.58H96.69a13,13,0,0,0-13,13v90.36a13,13,0,0,0,13,13H214.43a13,13,0,0,0,13-13V97.58A13,13,0,0,0,214.43,84.58Zm10,101a12.4,12.4,0,0,1-12.4,12.4h-113a12.41,12.41,0,0,1-12.41-12.4V100A12.41,12.41,0,0,1,99.06,87.54h113A12.41,12.41,0,0,1,224.47,100Z"/><path class="cls-3" d="M100.09,136.05,90,142.43a1.06,1.06,0,0,0,.13,1.95l10,5.09"/><path class="cls-3" d="M211,136.05l10.13,6.38a1.06,1.06,0,0,1-.13,1.95l-10,5.09"/><line class="cls-4" x1="210.29" y1="132.05" x2="199.4" y2="153.48"/><text class="cls-5" transform="translate(103.75 147.36)">TechStak</text><path class="cls-6" d="M106,55c1-.41.28-1.05.36-1.26C104.85,54.67,106.18,55.13,106,55Z"/><polygon class="cls-6" points="91.63 65.4 91.68 64.92 90.06 67.13 91.63 65.4"/><path class="cls-6" d="M78.67,75.47c2.18.13,4.3-4.12,7-5.43l.59,0,.31-1.78c-1.34,1.18-2.85,2.58-4.2,4A22.92,22.92,0,0,1,78.67,75.47Z"/><path class="cls-6" d="M70,79.34c.81,0-1,1.76,1.59-1.39a2.54,2.54,0,0,1-.37.17C71,78.39,70.66,78.75,70,79.34Z"/><path class="cls-6" d="M71.26,78.12c1.2-1.31-1.16.5,0,0Z"/><path class="cls-6" d="M66,84.41l1.14-2.11c-.58.14-2,1.67-1.7.92C64.05,85.23,64.65,85.07,66,84.41Z"/><path class="cls-6" d="M65.41,86.81c.19-.37.38-.73.59-1.07C65.75,85.8,65.5,86,65.41,86.81Z"/><path class="cls-6" d="M67.32,83.5,66,85.74c.41-.1.81.19.64-1C66.85,85.19,66.84,84.53,67.32,83.5Z"/><path class="cls-6" d="M68.44,82.56c1.09-.77,2.41-1.82,1.22.22,1.41-1.69,1.85-2.57,1.54-2.64S69.82,80.81,68.44,82.56Z"/><path class="cls-6" d="M79.12,77.2c.51-.28,1-.56,1.54-.8l.77-1.33A6.2,6.2,0,0,1,80,76.26C79.38,76.67,78.92,77.06,79.12,77.2Z"/><path class="cls-6" d="M56.62,95.63c.19.3,1.14-.19,1.58-.11.2-.56.43-1.09.66-1.63C58.15,94.47,57.09,95.79,56.62,95.63Z"/><path class="cls-6" d="M58.2,95.52,57.28,98C58.57,96.09,58.57,95.6,58.2,95.52Z"/><path class="cls-6" d="M66.46,88.19c.53-1.35,1.2-2.6,1.8-3.92-.79,1.51-1.59,3-2.28,4.56Z"/><path class="cls-6" d="M51.48,104.12l.07-1.65c-.12.94-.21,1.89-.26,2.85Z"/><path class="cls-6" d="M48.64,110.05c-.11-1.26-1.57.92-1.43-.29a15.5,15.5,0,0,0-.91,4.76A11.06,11.06,0,0,1,48.64,110.05Z"/><path class="cls-6" d="M46.09,116.92a21,21,0,0,0,.21-2.4A9.46,9.46,0,0,0,46.09,116.92Z"/><path class="cls-6" d="M54.87,101.62a2.92,2.92,0,0,0-1.81,1.3l1.3-.43Z"/><path class="cls-6" d="M54.4,102.47l0,0-1.13,1.86Z"/><path class="cls-6" d="M55,101.4l-.13.22C55,101.58,55.05,101.55,55,101.4Z"/><path class="cls-6" d="M61.79,93c-.45,1.52-1.78,4.33.58,2.35C62.47,94.09,61.12,95.23,61.79,93Z"/><path class="cls-6" d="M56.6,100.9c.51-.74,1.07-1.44,1.61-2.17-.23-.08-.79.14-.6-.62C57.27,99.05,56.9,100,56.6,100.9Z"/><polygon class="cls-6" points="56.19 102.19 56.6 100.9 56.03 101.73 56.19 102.19"/><path class="cls-6" d="M48.69,112.93a8.17,8.17,0,0,1-.43,1.84c-.19.62-.41,1.27-.65,2,.71-1.39,1.47-2.81,2.1-4.2C49.54,112.22,49.35,111.39,48.69,112.93Z"/><path class="cls-6" d="M51.41,107.81l-.08.25C51.47,108,51.56,107.85,51.41,107.81Z"/><path class="cls-6" d="M43,130.24l.22-.18-.14-.09Z"/><path class="cls-6" d="M50,112.37a4.24,4.24,0,0,0,.75-2.44c-.28.83-.61,1.7-1,2.6C49.79,112.67,49.86,112.73,50,112.37Z"/><path class="cls-6" d="M45.05,120.83c.37-.52.75-1.12,1.17-1.74C45.72,119.54,44.89,120.54,45.05,120.83Z"/><path class="cls-6" d="M50.93,108.3a1,1,0,0,1,0-.17C50.62,108.38,50.73,108.38,50.93,108.3Z"/><path class="cls-6" d="M50.93,108.3a7.67,7.67,0,0,0-.21,1.63,15.5,15.5,0,0,0,.61-1.87A1.52,1.52,0,0,1,50.93,108.3Z"/><path class="cls-6" d="M47.68,135.75c-.39-.19-.6-1-.53-2.14a7,7,0,0,1,.34-1.76,6.8,6.8,0,0,1,.91-1.75c.09-2.57-3-1.83-5.14,0,.35.18.61.26.49,3,.59-.82,2.58-5.37,2.69-3a7.39,7.39,0,0,1-.8,2.81,9.08,9.08,0,0,0-1,1.39c.68-.58.79.59.95,1.83s.44,2.58,1.25,2.36c0-1,.06-2,.12-3C47.15,135.37,47.27,136.5,47.68,135.75Z"/><path class="cls-6" d="M44.78,125.19l.26-1.08a19,19,0,0,1-2.23,3.33c-.12,1.89.08,2.34.31,2.53.56-1.73,1.06-3.47,1.66-5.18Z"/><path class="cls-6" d="M46.68,119.44c.5,1.12.07,3.73,1.51,2.55,1-3,.08-2.35.4-4.28-1.7,4.9.07-1.58-1.8,1.73a25.94,25.94,0,0,1,.82-2.71c-.45.83-.92,1.62-1.39,2.36l.1-.09v0h0c.19-.17.28-.22.12,0,0,0,0,.08,0,.1a.91.91,0,0,1,.24.35c-.74,1.34-.32.14-.24-.35,0,0-.06-.08-.1-.1h0c-.51,1.68-.85,3.42-1.28,5.11A43.53,43.53,0,0,0,46.68,119.44Z"/><path class="cls-6" d="M62.46,98.65c-.15.08-.2,0-.26,0C62.12,99,62.11,99.15,62.46,98.65Z"/><path class="cls-6" d="M60.88,100.09a3,3,0,0,1,.67-1.79c.79-.73.37.24.65.36.17-.74.84-2.47-.78-.83l-.09.38c-1.36,1.54-3.77,3.18-3.68,2.81A7.52,7.52,0,0,0,60.88,100.09Z"/><path class="cls-6" d="M53.47,109.54c-.54,1.33-1,2.7-1.42,4L53.66,112l-.47-.11C54.39,109.76,53.67,110,53.47,109.54Z"/><path class="cls-6" d="M42.46,130.6l-.77-.81c.18.93.46,1.88.69,2.8Z"/><path class="cls-6" d="M41.24,136.16l-.77-.38c.05.53.13,1.06.2,1.59Z"/><path class="cls-6" d="M243.12,221.14l.48-1.09A6,6,0,0,0,243.12,221.14Z"/><path class="cls-6" d="M238,227.89l.19.42C238.24,227.86,238.21,227.62,238,227.89Z"/><path class="cls-6" d="M91,257.91c1.14,1.66,2.29,3.84,2.59,2.91v-1.09A8.89,8.89,0,0,1,91,257.91Z"/><path class="cls-6" d="M181.27,268.87l-.57-.14-1,1.1C180.19,269.54,180.72,269.24,181.27,268.87Z"/><path class="cls-6" d="M181.56,264.85h2.36A11.93,11.93,0,0,0,181.56,264.85Z"/><path class="cls-6" d="M259.53,178.4c-.23-.5-.45-1-.71-1.48C258.49,179,259.09,178.16,259.53,178.4Z"/><path class="cls-6" d="M43.83,193.7a21.22,21.22,0,0,0,.68,4C44.42,195.69,44.72,194,43.83,193.7Z"/><path class="cls-6" d="M249.05,229.66c.32-.73.36-1.12.18-1.22C248.9,229.19,248.77,229.66,249.05,229.66Z"/><path class="cls-6" d="M46.1,202.12c0-.3-.06-.58-.09-.88a17.41,17.41,0,0,1-1.5-3.52A6.93,6.93,0,0,0,46.1,202.12Z"/><path class="cls-6" d="M172.74,55.71c-.11-.06-.26-.1-.36-.16C172.32,55.67,172.49,55.7,172.74,55.71Z"/><path class="cls-6" d="M121.71,50.12c.48-.21,1.29-.47,2.06-.72A8.63,8.63,0,0,0,121.71,50.12Z"/><path class="cls-6" d="M38.26,158.87c0-1.21-.11-.19,0,0Z"/><path class="cls-6" d="M42.13,153.23c.09.25.22.45.43.49A.86.86,0,0,1,42.13,153.23Z"/><path class="cls-6" d="M56.07,210.55l0,.09C56.12,210.26,56.12,210.32,56.07,210.55Z"/><path class="cls-6" d="M38.74,157.06a11.15,11.15,0,0,0-.33,1.54C38.48,158.35,38.59,157.89,38.74,157.06Z"/><path class="cls-6" d="M38.3,157.3l.13-1.06C38.28,156.08,38.18,156.22,38.3,157.3Z"/><path class="cls-6" d="M38.32,160.56a13.79,13.79,0,0,1,.09-2c-.07.24-.12.34-.15.27Z"/><path class="cls-6" d="M247.49,102.58c0-.08,0-.16-.05-.25C246.52,101.58,246.83,102,247.49,102.58Z"/><path class="cls-6" d="M122.15,262.44H122l.14.09Z"/><path class="cls-6" d="M126.14,262.94a4.11,4.11,0,0,1-4-.41c.14,1,.29,2,.45,3C123.82,264.64,125,263.79,126.14,262.94Z"/><path class="cls-6" d="M252.75,203.32l-1.89,2.16c.14-3.58,1.51-5.52-.59-3.67.62.37.68,1.17.45,2.18a16.65,16.65,0,0,1-1.32,3.44,21.9,21.9,0,0,0-1.43,3.4c-.32,1-.35,1.79.23,2.23l-1.44,1.28c.29-.44.18-.6.46-1-2.93,2.36.47,3.34-2.37,7-1.07,1.22-2.09,1.86-1.73.79l-1.49,3.32c-.66.81-.9.31-.26-.5-1,1.51-2.1,2.95-3.15,4.44l0-.09a20.65,20.65,0,0,1-1.12,3.53c-1.23.79.23-.73-.28-.69-.49.91-1,1.85-1.48,2.75-.71.19-.75-.29-.44-1a8.4,8.4,0,0,1,1.64-2.45c-2,.12-2.26.7-2.7,1.69a8,8,0,0,1-3.81,3.91c.59-.74,1.13-1.52,1.7-2.28a5.9,5.9,0,0,0-3,1.31,24.13,24.13,0,0,1-3.48,2.19c.86-.09,6.36-2.48,4.51.26a7,7,0,0,0-2.67,2.86c-.7-.75-1.83.54-3.42,2l-.76-1.14a5.21,5.21,0,0,0-1.13,1.91,6.4,6.4,0,0,1-.53,1.59c-2.14,1.48-3.18,1-4.2.57-3.49,2.17,3.33-.25-.54,2.75a17.47,17.47,0,0,0-2.11,1.22,22.89,22.89,0,0,0-1.89,1.33c-1.23,1-2.42,2.17-4.06,3.5-2.35.77,0-.93-1-.85l-1.36,2c-.47.24-.48-.14-.48-.33-1.41,1.22.51,1.28-1.91,2.89,0,.83-1.59,1-3.47,1.31s-4,.68-5.4,2.09c-1-.06.1-.93-.35-1.32-2.06,1.35-3,1.91-3.77,2.47s-1.49,1.06-3.19,2.39c-1.18.06-2.36.13-3.54.11,2.71.35-.06,2.31-2.65,4a21.61,21.61,0,0,0,2.44.53c-1.44.63-2.89,1.27-4.38,1.8-.6-.11-.24-.66.39-1.37l-.77.49c-1.73-.15-1-1.09,0-2.07.6.14,1.21.31,1.8.48.92-1.09,1.7-2.24,1.28-3a4.83,4.83,0,0,1-1.34.72c.23-.29.36-.53.2-.63s-.56.34-1.2.81l-1.33-1.27-.12.64c-2,.09-3.93.19-5.9.13-1,.54-1.9,1.12-2.87,1.7s-2,1.09-3.09,1.63a21,21,0,0,1-3.65,1.43,26.07,26.07,0,0,1-4.57.94c1.67-1.12.31-1.82.38-3.13.93.69,2.23.43,3.7.08l2.34-.6a11.22,11.22,0,0,1,2.52-.39c-1.8.05-1.46-.62-1-.89-2,.69-4,1.15-6,1.7.1-1.07-1.33-.72-2.93-1.18.62,1.06-.52,1.42-2.14,1.6a20.25,20.25,0,0,1-2.62.13,14.35,14.35,0,0,0-2.36.2c-.12-.72.52-1.42,3.55-1.12-1.66-.87-2.74-.29-3.87.32a3.61,3.61,0,0,1-3.86.36c.75.05,1.15.2,1.47-.14a9.18,9.18,0,0,1-3.56-.09c-1.14-.24-1.91-.67-1.38-.9l.74.09c-1.22-.23-2.76-.48-4.4-.69s-3.37-.55-5-.72c-3.22-.45-6-.6-6.6.15a9.51,9.51,0,0,1,1.57-2.22,102.05,102.05,0,0,1-10.39,3.17c1.24-1.21-.36-5.67,3.8-5.17a12.56,12.56,0,0,0-4.82-1.64c.65.51,1.09,2.83,0,2.57-2.2-2.76-1.67-1.61-4.51-4.42,1,.8-1.22,2.48-3,1.6.43-.2.86-2.25,1.59-2.19l-2.66.11c-.89,0-1.77,0-2.67,0,1.27.16,1.09-1.72.47-2.8.11.32-.79-.15-1.87-.75a25.77,25.77,0,0,0-2.89-1.63l1.46,1.48a8.13,8.13,0,0,0-5.38-1.39,7.85,7.85,0,0,1-5.44-1.53c.83,0,3-1.59,1-3.39a29.94,29.94,0,0,1-5.19.57,14.33,14.33,0,0,1-7.26-1.64l-.26-1.15c-1.13-.63-2.29-1.25-3.37-2,1.46.19,4.15.57,6.8,1,1.32.26,2.72.44,4,.67s2.38.45,3.29.66c-1.24-1.66.06-1-2.31-2.78-.41-1.15,1.88.22,2.58.72-1.71-1.52-3.43-3-5-4.64-.35.64-1.57.05-2.79-.57s-2.35-1.38-2.67-.86c2.12,1.43,4.4,2.65,6.58,3.91-.34.65-1.8.72-3.66.17a12.5,12.5,0,0,1-3-1.31A15.36,15.36,0,0,1,78.21,239c-.52-1.29,2.47-1.16,2.72-1.58A6.87,6.87,0,0,1,78.62,236a6.28,6.28,0,0,1-1.7-1.83l2,1A7,7,0,0,0,76,232.87a5.31,5.31,0,0,1-2.64-3.13c-.71-.9-.71-3.77-1.48-3.4-.17,2.45-3.81,6-5.58,5.7-.08-.2-.75-1.7-1.41-3.33a18.24,18.24,0,0,1-1.25-4.23c0-2.3,4.14.62,4.1-1.36-.36.17-1.35-.41-1.73-.68-.41-1.18,1.29-.27-.35-2.31-1.45.43-2.72-4.59-1.68-.38a7.53,7.53,0,0,1-1.45-2.3,23.44,23.44,0,0,0-1.34-2.75c-.17.66-1.19.46-2.38-.18a10.17,10.17,0,0,1-3.34-2.83c.4,0,.56-.78.63-1.14-.56-1.22-1-2.32-1.44-3.35s-.69-2-1-3l-1-2.92c-.3-1-.65-2.07-1.08-3.24.16-.56-.25-2.94.68-2.19a6.61,6.61,0,0,1-1.61-2.51c.31-3.18,1.2,3.18,2,.58-.83.07-2.35-3.37-3.34-5.37-.52.48-.32,1.75.28,3.09a37.59,37.59,0,0,0,2,3.74c-.85.29-2-.32-3.25-1.64a15,15,0,0,1-1.9-2.48,29.88,29.88,0,0,1-1.71-3.4c-.77-2-.52-2.55-.23-2.63s.71.24.51-.09a17.17,17.17,0,0,0-1.25-4.38,16,16,0,0,0-1.35-2.52c-.89-1.42-1.68-2.74-1.35-6.16.86-2.76,2.25-.34,3-1a13.1,13.1,0,0,1,.26,4.2,15.52,15.52,0,0,0,0,3.41l.09-2.91a10.07,10.07,0,0,1,1,4.51,10.15,10.15,0,0,0,0-3.13c-.07-.71-.17-1.51-.28-2.36S45.05,173,45,172.1s-.19-1.92-.25-2.9l-.09-2.92a28.69,28.69,0,0,1,.29-5.26c-.39-1.06-.8-2.93-1.25-2.05l.17,1.92c-.91,1.79-1.3-3.65-1.71-1.2a34,34,0,0,1-.88-4.26,15.83,15.83,0,0,1-.16-2.43,14,14,0,0,1,.37-2.63l1.36-.57c-.39,0-1,2.33-.69,3.4-.22-.79.35-2.17.77-3.56a8.87,8.87,0,0,0,.43-2,2.31,2.31,0,0,0-.4-1.7c-.41.81-.85,1.63-1.21,2.47-.22-1.36-.47-2.89-.64-4.51a11.76,11.76,0,0,1,.42-4.92c-1.55,1.27,0,.77-1.92,2.88,2.13-1.76-1.25,8.52,1.14,5.47a6.59,6.59,0,0,0-1.52,3.29,15.32,15.32,0,0,1-1.3,3.94c.43-.08.87-1.1.54,1.72a2.59,2.59,0,0,1,.35.64l0,.18.06-.15c.06.12.07.14,0-.06a3.3,3.3,0,0,1,.71-1.4,9.93,9.93,0,0,1,.79,3.65,24,24,0,0,0,.57,3.68c-.19,1.65-.49-.68-1,.23.25.75.52,1.48.83,2.21-.94.25-1.34,4.51-2.11.6l.15,3.55a15.48,15.48,0,0,0,.36,6.77c0,1.7,1.7,4,.73,2.7.25.91.47,1.81.74,2.71l.85,2.66-.22.1a55,55,0,0,0,2.51,8.11A33.85,33.85,0,0,1,46,201.24c.44.82.88,1.66,1.34,2.65a25.58,25.58,0,0,1,1.47,3.59l-.51.89a44.75,44.75,0,0,1,1.79,4.26c.59,1.51,1.17,2.86,1.82,3.09a5.56,5.56,0,0,0,.55,3.09c.24.6.55,1.23.89,1.88s.79,1.28,1.23,1.93c.88,1.3,1.79,2.63,2.7,3.81a30.92,30.92,0,0,1,2.23,3.21l1-.5a27,27,0,0,0,2.74,3.38c.51.56,1,1.12,1.6,1.7S66,235.36,66.7,236l.59-.78c1.3.89,2.38,2.52,3.73,4.25.65.88,1.33,1.82,2.07,2.75a26.35,26.35,0,0,0,2.47,2.61c-.49,0-1.31-.89-1.78-1.64a12.08,12.08,0,0,0,2.73,3.57,30.23,30.23,0,0,0,3.71,2.62c1.26.83,2.6,1.51,3.78,2.32a14.33,14.33,0,0,1,3.06,2.78,5.78,5.78,0,0,1,2.58,1.85,1.15,1.15,0,0,0-.29-.15,3.69,3.69,0,0,0,.43.32A17.47,17.47,0,0,0,91,257.91a11.53,11.53,0,0,0-1-1.27,26.28,26.28,0,0,0,3.59,1.88v1.21l.31.16c1,1.12,1.25.22,1-.85a8.28,8.28,0,0,0,2,.48c.09,1,1,1.37,2,1.78s2,.84,2.27,2c.65-.15,2.4.57,4.16,1.15s3.62.9,4.33.24c0,.23.3.51-.43.2a9.34,9.34,0,0,0,4.42,1.74l.18,1.47,2-.15,2-.24c1.78,1.45,2.52,2.19.13,2.43,1.38.06,2.32.15,3,.23s1.24.13,1.72.2a17.62,17.62,0,0,0,4.18.1l-.43.76c1.57.35,4.29-.16,5.06.74a13.56,13.56,0,0,0,4.18,1.55,29.62,29.62,0,0,0,3.17.63l3.65.55c5.1.58,10.89.91,15.53,1.52-.92-1.24.16-.95,1.5-.64s3,.6,3.11-.37c.57.55,1.89.81.42,1.4a40.61,40.61,0,0,1,5.74-.46,7.44,7.44,0,0,0,4.49-1.36c.63.5-.87,1-.34,1.28.36-.19,1.41-.74,2-.47s-.61.59-1.32,1a11.53,11.53,0,0,0,2.82-.81,4.28,4.28,0,0,0,1.46-1.15,4,4,0,0,0,.65-2.58,7.39,7.39,0,0,0,3-.11,5.13,5.13,0,0,0,2.12-1.51c.94.33,2.46.54-.36,1.48l2.26-.45,1.64-.34c.57-.15,1.15-.32,1.72-.49,2.27-.69,4.3-1.48,4.14-2.19a5.11,5.11,0,0,0,2.58-1c1.76-.6,2.73-.92,3.66-1.31s1.85-.77,3.5-1.55l-1,.2c.67-2,2.6-1.59,5.16-3.07V262a16.67,16.67,0,0,0,3.21-1.2,5.91,5.91,0,0,0,1.19-.78,5.18,5.18,0,0,1,1.19-.74c.31-.15.7-.31,1.22-.51s1.14-.47,1.94-.77l-.84-.67c-.31-1.1,1.09-1.59,2.94-2.17s4.08-1.41,5.42-2.86l-1.48.33c.65-.89,2.24-1.19,3.95-1.41s3.55-.34,4.44-1c.48-.17-.36.73-.8,1.25,5.19-2.69-.27-1.51,2.72-4.47,1.06,0,.47,2.06,2.68.24.72-.28,1.85-2.13,3.22-4.12a25.68,25.68,0,0,1,2.15-3,12.07,12.07,0,0,1,1.22-1.25,6.75,6.75,0,0,1,1.29-1c-1,.27-1.94.53-1-1.21.88-1.2,2.66-2.32,4.11-3.7s2.85-2.8,2.89-4.43c.34-.22.54-.25.66-.19.47-1.07,1.44-2.65,2.16-4.26a11.38,11.38,0,0,0,1.29-3.94c1,0,1.88-.81,2.65-2a19.74,19.74,0,0,0,1.94-4.35,40.54,40.54,0,0,1,1.55-4.07c.5-1,1.06-1.59,1.79-1.25.45-1.08.93-2.14,1.35-3.24l1.21-3.29.24.29a14.64,14.64,0,0,0,1.4-4.72,10.24,10.24,0,0,0-.13-2.9c.5-.92.58-.11.72,0,1.21-3,1.88-4.74,2.08-6.4a22.68,22.68,0,0,0-.09-6.07l1.14-.36a5.86,5.86,0,0,1,.39-2.17c.3-1,.64-2.31,1-3.77.19-.72.38-1.49.54-2.29s.26-1.62.35-2.46a18.2,18.2,0,0,0,0-5c.12.07.32.21.44.73-.41-3.65.37-8,.57-11.76s-.06-7-2.1-8.14c-.44-1.54-1.07-3-1.6-4.55.64,6.05-1.78-.64-2,1.92a9,9,0,0,1,0-3.61c.17-.91.54-1.2.88.22l-.11.49c2.24.7-.76-7.54.53-7.67q-2.16-8.82-5.08-17.19c-.52-1.38-1-2.76-1.55-4.13s-1.16-2.68-1.75-4-1.22-2.63-1.9-3.9-1.3-2.58-2.06-3.79c-.22.64-.42,1.27-.67,1.92-.63-1.15-1.32-2.27-2-3.4-.25-1.07.28-1.84,1.73.6,0-1.75-3.15-3.64-3.5-3.47-2.64-4.9,2.73.76,1.8-.65L251,94l.16.54c-.8-.6-1.36-.83-2-1.26a7.19,7.19,0,0,1-.95-.88,13.6,13.6,0,0,1-1.29-1.55c-1.06-1.89.08-1.46-.39-2.17.09-.07,0-.33-.76-1.06-1-1.33-2.11-2.61-3.16-3.92L243,86c-1.88-1.29-3-3.57-2.54-.93-.31-2-3.32-5.52-6.61-8.56-1.62-1.55-3.36-2.91-4.68-4.08a19.68,19.68,0,0,1-2.7-2.42,17.57,17.57,0,0,1-2.14-1c-.7-.36-1.39-.74-2.07-1.17-1.38-.86-2.72-1.89-4.29-2.92.65.72.35,2.16-2.25.29,1.24-.86.2-2-1.4-3.14s-3.64-2.52-4.37-4c.74,1.14-1.38.15-3.36-.69s-3.91-1.38-2.64.23c-2.36-1.32.31-1-1.3-2.5a49.51,49.51,0,0,1-4.85-1.64c-.82-.33-1.64-.7-2.48-1.06l-2.58-1.07c-.88-.37-1.75-.77-2.66-1.11l-2.76-1a36.79,36.79,0,0,0-5.79-1.55c-.2.34,1,1.2-.82,1.35-1.22-1-2.49-1.79-3.77-2.68-.8-.06-1.26.4-1.84.65s-1.28.3-2.62-.53c.36.36.89.92-.17.89-7.61-2.06-15.77-2.06-23.76-1.4s-15.89,2-24.1,2.46c2.3.15.91.58-.68,1,1.09-.11.23.89.57,1.32-2.23.21-4.51.39-6.77.69-.34.87-2,1.51-3.61,2.13s-3.1,1.33-3.16,2.06l1.83-1.05c-1,1.29.26,1.69,1.76,2.1s3.28.84,3.44,1.86a3.89,3.89,0,0,1,2.28-1.25,23.3,23.3,0,0,1,3.17-.25c2.26-.17,4.69-.28,6.74-2.14,1.13.13-.74.86-.07,1.18,1-1.19,2.42-1.64,5.19-1.82l-.26.27a41.91,41.91,0,0,1,5-.84,36.65,36.65,0,0,1,4.38-.25c1.44,0,2.91,0,4.56.06s3.46.09,5.61.26l-.65-1a9.92,9.92,0,0,1,3.12.68c2.15-1.54-5.22,0-3.3-1.74a6.39,6.39,0,0,0,3.14.88c1.38.13,3,.26,4.58.33a26,26,0,0,1,4.39.56c1.25.29,2.19.67,2.52,1.33,2.81.4-.68-1.28,2.14-.87l.66.73.84-.7c1.84.38,2.62,1.4,2.59,1.92a10,10,0,0,0-1.76-.14,12.58,12.58,0,0,0,4.27,1,14.27,14.27,0,0,1,3.16.53c-.85-.33-1.7-.68-2.56-1a60.41,60.41,0,0,1,5.95,1.21c2,.58,4.09,1.11,6.1,1.84l3,1c1,.37,2,.72,3,1,2,.62,3.85,1.33,5.7,1.81l-.32-.67c.71.2,1.3.38,1.81.57s.91.39,1.27.58a13.14,13.14,0,0,1,1.71,1.07,28.91,28.91,0,0,0,4.87,3l-.25,0a11.17,11.17,0,0,1,4.34,1.92c-1.64-.39,1.94,2.53-.16,1.91,2.84,1.33,3.55,1.69,4.14,1.73a10.28,10.28,0,0,1,3.21.43l.28,1.22a13.12,13.12,0,0,1,1.86.39,9.59,9.59,0,0,1,2.64,1.59c-2.42-1.2.76,2.25-2,1a15.32,15.32,0,0,0,3,3.24,30.12,30.12,0,0,0,2.74,2c1.71,1.12,2.95,2.13,3.08,4.1,1.83.36,1.07-.89,0-2.12s-2.44-2.36-1.65-2c-.27-.75.47-.6,1.47-.06a11.49,11.49,0,0,1,2.79,2.43c.73.8.85,1.93,1.17,3.4a11.56,11.56,0,0,0,.81,2.38,10.82,10.82,0,0,0,.75,1.34,15.88,15.88,0,0,0,1,1.51c-.32-.43-.47-.35-.78-.78A7.12,7.12,0,0,0,241,95.72a9.51,9.51,0,0,1,1.07,1.19,5.07,5.07,0,0,1,.73,1.61c1.86.37,1.74,2.63,3.37,2l-3.13-3.82c1,1,2.23,1.78,3.5,2.85a11.19,11.19,0,0,1,3.24,4.74,9.48,9.48,0,0,1-2.31-1.74c.28,1.41,1.69,2,1.92,3.5-.8.23-1.65-1-2.65-2.49-.49-.75-1-1.59-1.59-2.33a8.49,8.49,0,0,0-1.93-1.8c.1.79,1.17,1.74,1.86,2.52s1.06,1.34-.1,1.2c1.54.28,2.17,1.44,2.84,2.77a8.64,8.64,0,0,0,2.88,4.08l-1,.26a7.77,7.77,0,0,1,1.81,2.21l-2-1.1c2.26,2.1,1.61,5.38,3.19,7.66-1.15-2.64-1-3.06-.62-3.14s1.09.17.87-1.1c4.15,6.1-.63,4.81,2.55,12.05-.48-1-.83-4,.2-2.58a18.67,18.67,0,0,1,.42,2.45,8.46,8.46,0,0,1-.05,2.13c1.78,5,.75-1.08,2,.88-.6,2.07,1.2,2.37,2.19,4.56l-1,.26a13.57,13.57,0,0,0,.36,1.79,4.17,4.17,0,0,0,.36,1,1.37,1.37,0,0,0,.84.71c.57.21,1.11.36,1.29,3.15l-1.87-2c.3.91.65,1.81.92,2.73l-1.25-.37A12.59,12.59,0,0,1,261.1,145a18.14,18.14,0,0,1,.17,3.52c.64-.79,1.89.18,2.21,2.89-.46,1.89-1-.95-.65,2.86-.71-.83-1.49-1.7-.75-3.42-.35-.14-.73-.78-1.07-.92-.44,2,.2,4.9.3,6.27a5.3,5.3,0,0,1,.16-1.49c.28.9.58,1.8.85,2.71l.73,2.76c-.38.87-.7.18-1-.5.1,1.11.63,1.89.65,3.54-.82-.45-1.64-.37-2.06-2.66.36,1.73.55,3.46.79,5.21-.36.34-1.12,2.61-1.39,1.91a15.36,15.36,0,0,0,.07,5.09,14.5,14.5,0,0,1-.43,5.79,2.93,2.93,0,0,1,.17,1.46c-.22.88-.47,1.72-.74,2.56s-.61,1.64-.88,2.49a21.1,21.1,0,0,0-.68,2.66,15.61,15.61,0,0,0-.37,3c-.71.63-1.37,1.26-2.12,1.86-.76,3.25,2.86-2.54,1.58,2.93-.85,3.93-1.67,1-2.55,2.12a24.06,24.06,0,0,1-.24,4.07,9.34,9.34,0,0,1-2.29,4.61A21.37,21.37,0,0,1,252.75,203.32Zm-23,34.17c.22-.36.5-.93.84-1.4s.68-.91,1.1-.91C231.89,236.67,231,236.8,229.75,237.49Zm-55.07,30.75a3.58,3.58,0,0,1,2.63-.31A6.75,6.75,0,0,1,174.68,268.24Zm-135-96.19.06.09C39.54,174.13,39.62,173.42,39.67,172.05Zm.11-4.08c-.16-.4-.3-.37-.44-.19a4.11,4.11,0,0,1,.34,2.22C39.92,169.69,40.08,169.16,39.78,168ZM246,88.51l.27.79C244.93,88.08,245.44,88.3,246,88.51Z"/><path class="cls-6" d="M181.51,265.32a.88.88,0,0,1,.47.46C182.25,265.53,182.21,265.33,181.51,265.32Z"/><path class="cls-6" d="M259.65,178.68l0-.12a.39.39,0,0,0-.15-.16Z"/><path class="cls-6" d="M67.29,221.6a4,4,0,0,1,.42,1.52C67.94,223,67.91,222.6,67.29,221.6Z"/><path class="cls-6" d="M38.67,146.32c-.05.88,0,1.76,0,2.64a5.22,5.22,0,0,1,.58-2.31C39,146.68,38.58,147.14,38.67,146.32Z"/><path class="cls-6" d="M49.67,126c0-.39.23-.74.23-1.12l-.48-.06C48.94,126.32,49,127.46,49.67,126Z"/><path class="cls-6" d="M42.38,144.39c.91-.08.75-1.71,1-3.49a1.54,1.54,0,0,1-.05.31c-.55-.36-.81-.05-.93.59A12.52,12.52,0,0,0,42.38,144.39Z"/><path class="cls-6" d="M43.39,140.49a12.63,12.63,0,0,1,.29-1.63C43.24,138.57,43.45,139.51,43.39,140.49Z"/><path class="cls-6" d="M39,162.84c.22-.87-1.1-.53-.75-1-.56-.48-.21,1,.19,1.94.19.49.44.85.56.79S39.14,164,39,162.84Z"/><polygon class="cls-6" points="45.39 143.39 44.25 143.85 44.96 144.95 45.39 143.39"/><path class="cls-6" d="M43.33,157.1l.41-2.8c-.18,0-.27-.33-.33-.77C43.3,155.26,43,157.15,43.33,157.1Z"/><path class="cls-6" d="M43.41,153.53a8.15,8.15,0,0,0,0-2.27A14.12,14.12,0,0,0,43.41,153.53Z"/><path class="cls-6" d="M45.18,147.21l-.33.79L44.59,150C44.79,149,44.93,148.12,45.18,147.21Z"/><path class="cls-6" d="M46.24,187.12,47.31,190c.43.21.44-.66,0-1.72C46.89,187.65,46.47,186.58,46.24,187.12Z"/><path class="cls-6" d="M47.31,177.55a2.83,2.83,0,0,1-.6,1.44l1.32-.13Z"/><path class="cls-6" d="M49.29,186c.44.21,2.11,3.91,1.08.3C49.92,186.15,48.93,183.31,49.29,186Z"/><polygon class="cls-6" points="67.05 227.46 66.56 226.85 64.89 228.23 67.05 227.46"/><path class="cls-6" d="M99.31,250.13c-2.6-2.29-1.42.69-3.67-1.55-1,0,1.84,1.83.91,1.74C98.61,251,99.36,251.85,99.31,250.13Z"/><path class="cls-6" d="M96.55,250.32a11.24,11.24,0,0,0-1.09-.3A4.4,4.4,0,0,0,96.55,250.32Z"/><path class="cls-6" d="M113,51.93c-.82.13-1.61.34-2.42.51l1.72.05C112.49,52.29,112.72,52.12,113,51.93Z"/><path class="cls-6" d="M109.31,55.21l-1.08-1-.82,1.71C107.88,55.61,108.8,55.08,109.31,55.21Z"/><path class="cls-6" d="M223.37,239.53l.09.36c.49.06.89-.26,1.71-.88Z"/><polygon class="cls-6" points="243.54 218.08 243.24 218.49 244.8 218.36 243.54 218.08"/><path class="cls-6" d="M253.08,195.26c-.36.94-.53,2.13-1,3.05C252.74,196.22,254.62,195.52,253.08,195.26Z"/><path class="cls-7" d="M76.08,271.5c-1-.8-1.22.31-1.49.35C76.48,272.87,76.19,271.25,76.08,271.5Z"/><polygon class="cls-7" points="94.99 280.23 94.47 280.45 97.65 280.84 94.99 280.23"/><path class="cls-7" d="M112.67,287.7c-.57-1.13-2.21-1.67-4.1-2.14a17,17,0,0,1-5.45-1.91l-.36-.59-2,.7c2,.69,4.27,1.43,6.44,2A26.14,26.14,0,0,1,112.67,287.7Z"/><path class="cls-7" d="M121.56,294.29c-.46-.84,2.35,0-2.32-.83a3.43,3.43,0,0,1,.38.28C120,293.84,120.6,294,121.56,294.29Z"/><path class="cls-7" d="M119.62,293.74c-2-.47,1.17.91,0,0Z"/><path class="cls-7" d="M129.05,295.53l-2.8.05c.47.51,2.86,1.1,1.91,1.21C131,297,130.49,296.51,129.05,295.53Z"/><path class="cls-7" d="M131.82,294.74c-.48,0-.95,0-1.43,0C130.6,295,131,295.11,131.82,294.74Z"/><path class="cls-7" d="M127.36,294.69l3,.06c-.33-.36-.26-.93-1.37-.08C129.36,294.2,128.68,294.58,127.36,294.69Z"/><path class="cls-7" d="M125.76,294.08c-1.41-.67-3.24-1.41-.47-1.37-2.53-.47-3.68-.42-3.58-.06.05.17.42.41,1.1.68A13.33,13.33,0,0,0,125.76,294.08Z"/><path class="cls-7" d="M114.18,286.25c-.57-.36-1.14-.71-1.7-1.11l-1.79,0a7.19,7.19,0,0,1,2,.82C113.49,286.28,114.16,286.53,114.18,286.25Z"/><path class="cls-7" d="M145.85,298.67c.2-.36-.85-1.05-1-1.55-.68.12-1.36.18-2,.26C143.8,297.78,145.75,298.1,145.85,298.67Z"/><path class="cls-7" d="M144.84,297.12l3-.47C145.21,296.42,144.7,296.7,144.84,297.12Z"/><path class="cls-7" d="M132.63,292.88c-1.67.23-3.33.27-5,.41,2-.06,4-.09,6-.28Z"/><path class="cls-7" d="M157.45,299.07c-.57.3-1.14.57-1.72.86l1.54-.64,1.52-.72Z"/><path class="cls-7" d="M165.13,298.57c-1.22.83,1.84,1.08.52,1.63a18.68,18.68,0,0,0,5.38-1.79A12.84,12.84,0,0,1,165.13,298.57Z"/><path class="cls-7" d="M173.6,297.25a21.54,21.54,0,0,0-2.57,1.16A11.55,11.55,0,0,0,173.6,297.25Z"/><path class="cls-7" d="M153,297a3.39,3.39,0,0,0,2.35,1.1l-1.17-1.07Z"/><path class="cls-7" d="M154.1,297l.05,0,2.54.09Z"/><path class="cls-7" d="M152.67,297h.3C152.85,296.93,152.79,296.89,152.67,297Z"/><path class="cls-7" d="M140.18,294.92c1.81-.41,5.43-.66,2.06-1.93C140.93,293.58,142.88,294.31,140.18,294.92Z"/><path class="cls-7" d="M151.25,295.68c-1.05-.09-2.09-.27-3.14-.4,0,.28.6.72-.28,1C149,296.05,150.11,295.91,151.25,295.68Z"/><polygon class="cls-7" points="152.8 295.36 151.25 295.68 152.41 295.78 152.8 295.36"/><path class="cls-7" d="M168,296.87a9.79,9.79,0,0,1,2.12-.61q1.13-.24,2.37-.45c-1.82.06-3.7.1-5.48.25C166.83,296.41,166.1,297.08,168,296.87Z"/><path class="cls-7" d="M161.26,297l.31-.07C161.37,296.88,161.22,296.85,161.26,297Z"/><path class="cls-7" d="M188.94,292.75l-.31-.13a1.15,1.15,0,0,1,0,.19Z"/><path class="cls-7" d="M166.73,295.89a5,5,0,0,0-2.91.63c1-.19,2.08-.35,3.23-.46C167.15,295.9,167.17,295.8,166.73,295.89Z"/><path class="cls-7" d="M178.18,296.07c-.74-.08-1.57-.13-2.44-.2C176.49,296.13,178,296.4,178.18,296.07Z"/><path class="cls-7" d="M162,297.24l-.2.05C162.3,297.5,162.24,297.39,162,297.24Z"/><path class="cls-7" d="M162,297.24a9.17,9.17,0,0,0,1.78-.72,19.11,19.11,0,0,0-2.25.44A2.16,2.16,0,0,1,162,297.24Z"/><path class="cls-7" d="M191.91,284.86c0,.5-.72,1.21-1.88,1.76a8.61,8.61,0,0,1-2,.67,8.47,8.47,0,0,1-2.31.07c-2.67,1.37-.15,4.11,2.9,5.26,0-.45-.08-.77,2.75-2.19-1.18-.14-7,.44-4.64-1a8.74,8.74,0,0,1,3.33-.79,10.7,10.7,0,0,0,2,.28c-1-.36.15-1.14,1.33-2s2.38-1.92,1.69-2.62c-1,.59-2.09,1.08-3.15,1.61C191.82,285.62,192.91,284.84,191.91,284.86Z"/><path class="cls-7" d="M182.79,293.85l-1.25.36a21.11,21.11,0,0,1,4.66.37c2-1,2.35-1.41,2.42-1.77-2.09.42-4.15.91-6.24,1.27Z"/><path class="cls-7" d="M175.83,295.2c.86-1.15,3.77-2.21,1.74-3-3.65.69-2.44,1.27-4.59,2.05,6-1.07-1.66.82,2.79.84a30.19,30.19,0,0,1-3.24.72c1.11,0,2.19,0,3.21.06l-.15-.05h0s0,0,0,0c-.28-.09-.38-.16-.07-.12,0,0,.09,0,.12,0a1,1,0,0,1,.21-.44c1.79,0,.32.24-.21.44a1,1,0,0,0-.05.16h0c2-.44,4-1.08,5.95-1.61A50.34,50.34,0,0,0,175.83,295.2Z"/><path class="cls-7" d="M145.59,291c.18.1.16.18.17.26C146.15,291.14,146.3,291.06,145.59,291Z"/><path class="cls-7" d="M148,291.77a3.42,3.42,0,0,1-2.22.34c-1.18-.39.05-.51,0-.86-.85.24-3,.55-.4,1.26l.43-.12c2.35.51,5.4,2,5,2.15A8.85,8.85,0,0,0,148,291.77Z"/><path class="cls-7" d="M161.85,293.93c1.66-.2,3.3-.55,4.94-.86l-2.58-.71.16.54C161.54,292.87,162.18,293.47,161.85,293.93Z"/><path class="cls-7" d="M189.64,293.13l-.39,1.25c.85-.72,1.65-1.55,2.46-2.31Z"/><path class="cls-7" d="M196,291.19l.05,1c.51-.35,1-.74,1.5-1.11Z"/><path class="cls-7" d="M167.32,36.6l-1.39.14A8.67,8.67,0,0,0,167.32,36.6Z"/><path class="cls-7" d="M177.14,38l.32-.44C177,37.73,176.74,37.9,177.14,38Z"/><path class="cls-7" d="M291.8,170.81c1-2.11,2.61-4.54,1.49-4.31l-1.12.62A10.08,10.08,0,0,1,291.8,170.81Z"/><path class="cls-7" d="M251.38,72.43l.18.66,1.7.37C252.68,73.16,252.08,72.77,251.38,72.43Z"/><path class="cls-7" d="M247.12,74.43,245.77,72A14.24,14.24,0,0,0,247.12,74.43Z"/><path class="cls-7" d="M114.32,44.29c-.37.51-.75,1-1.11,1.56C115.52,45,114.32,44.87,114.32,44.29Z"/><path class="cls-7" d="M253.25,255.66a25.82,25.82,0,0,0,3.71-3C254.93,253.92,253,254.6,253.25,255.66Z"/><path class="cls-7" d="M172.62,25.67c-.93.1-1.34.27-1.34.51C172.23,26.1,172.78,26,172.62,25.67Z"/><path class="cls-7" d="M260.53,248.53c-.3.18-.55.4-.84.6a20.19,20.19,0,0,1-2.73,3.54A8.07,8.07,0,0,0,260.53,248.53Z"/><path class="cls-7" d="M38.73,203a3.73,3.73,0,0,1,0,.46C38.93,203.44,38.86,203.26,38.73,203Z"/><path class="cls-7" d="M62.2,258.27c-.49-.37-1.22-1.06-1.91-1.69A10.46,10.46,0,0,0,62.2,258.27Z"/><path class="cls-7" d="M220.89,281.25c-1.22.73-.14.22,0,0Z"/><path class="cls-7" d="M212.91,280.53a.76.76,0,0,0,.26-.72A1,1,0,0,1,212.91,280.53Z"/><path class="cls-7" d="M263.44,233.53l.07-.09C263.11,233.65,263.18,233.61,263.44,233.53Z"/><path class="cls-7" d="M218.77,281.8a14.87,14.87,0,0,0,1.76-.54A15.69,15.69,0,0,0,218.77,281.8Z"/><path class="cls-7" d="M219.26,282.12l-1.15.47C218,282.83,218.22,282.85,219.26,282.12Z"/><path class="cls-7" d="M222.58,280.23a18.72,18.72,0,0,1-2.05,1c.27-.07.41-.08.36,0Z"/><path class="cls-7" d="M43.83,99.91a2.36,2.36,0,0,1-.23.2C43.36,101.48,43.58,100.94,43.83,99.91Z"/><path class="cls-7" d="M278.62,136.44a.91.91,0,0,0,.08.13v-.19Z"/><path class="cls-7" d="M276.85,132.07a4.81,4.81,0,0,1,1.85,4.31c.92-.71,1.86-1.43,2.76-2.15C279.91,133.48,278.38,132.76,276.85,132.07Z"/><path class="cls-7" d="M143.62,37l3.29.69c-3.73,1.9-6.49,1.62-3.41,2.7,0-.85.81-1.36,2-1.7a19.18,19.18,0,0,1,4.26-.62,27,27,0,0,0,4.29-.49c1.19-.23,2-.66,2.15-1.5l2.12.73c-.61,0-.71.16-1.31.12,4.08,1.64,3.14-2.38,8.54-1.61,1.86.41,3.1,1.08,1.8,1.32l4.24-.38c1.2.21.82.75-.37.55,2.12.16,4.22.46,6.33.68l-.06.09a24.92,24.92,0,0,1,4.24-.88c1.5.81-.87.19-.55.68,1.21,0,2.44-.07,3.66-.05.6.61.14.93-.77,1A9.8,9.8,0,0,1,180.6,38c1.27,2,2,1.91,3.27,1.79s3-.22,6.17,1.65c-1.09-.18-2.2-.28-3.29-.43a6.79,6.79,0,0,0,3.06,2.36A26.86,26.86,0,0,1,194,45.7c-.31-.42-1.82-1.68-2.82-2.81s-1.44-2.11.5-1.94A8.23,8.23,0,0,0,196.17,42c-.37,1.15,1.6,1.56,4,2.36l-.73,1.43a6.33,6.33,0,0,0,2.6.06,6.87,6.87,0,0,1,1.91-.37c2.74,1.33,2.81,2.69,3,4,4.2,2.33-2.16-3.24,3.1-1a21.55,21.55,0,0,0,2.46,1.45,23.77,23.77,0,0,0,2.44,1.17c1.68.7,3.59,1.23,5.88,2.14,2.14,2-.93.57-.3,1.49l2.81.25c.51.35.13.57-.06.68,2,.74,1-1.25,4,.3.86-.45,2,1,3.32,2.79s3,3.74,5.21,4.31c.5,1-1,.43-1.14,1.11,2.56,1.33,3.65,2,4.68,2.43s1.93.92,4.26,1.9c.74,1.17,1.48,2.33,2.13,3.55-1.19-3,2.4-1.26,5.61.41a26.28,26.28,0,0,0-.85-2.79c1.47,1.11,2.95,2.22,4.34,3.44.24.67-.54.61-1.61.38a9.92,9.92,0,0,0,.93.5c.84,1.86-.53,1.69-2.09,1.25-.19-.7-.37-1.42-.54-2.12-1.63-.31-3.26-.46-3.74.38a5.76,5.76,0,0,1,1.51,1c-.43-.06-.75-.06-.76.16s.66.38,1.51.77l-.54,2.08.72-.25,1.82,2.94c.61,1,1.13,2,1.69,3,1.1.68,2.23,1.3,3.38,2s2.25,1.4,3.42,2.22c.59.41,1.19.84,1.79,1.32s1.16,1,1.76,1.59a28.91,28.91,0,0,1,3.57,4.12c-2.09-1.06-2,.72-3.41,1.41.18-1.34-.82-2.53-2-3.83l-1.94-2a12.7,12.7,0,0,1-1.83-2.34c1.07,1.81.2,1.85-.32,1.56,1.82,1.63,3.45,3.42,5.18,5.18-.58.26-.58.7-.36,1.31s.59,1.42.83,2.36c.72-1.24,1.74-.29,2.85,1.26.28.39.57.81.85,1.25s.52.91.79,1.35a15.75,15.75,0,0,0,1.55,2.3c-.67.53-1.75.28-3.18-3,.06,2.2,1.27,3,2.54,3.77s2.5,1.62,2.58,3.73c-.38-.79-.46-1.28-1-1.42a10.9,10.9,0,0,1,1.93,3.69c.42,1.31.42,2.33-.12,1.92l-.33-.81c.46,1.38,1.08,3.1,1.8,4.9s1.37,3.74,2.13,5.49a44.84,44.84,0,0,0,2.05,4.59c.68,1.2,1.32,2,1.87,2.06a11.21,11.21,0,0,1-3.16-.33,123.83,123.83,0,0,1,9.18,8.79c-1-.31-2.37.63-3.76,1s-2.76.3-3.69-2a13.38,13.38,0,0,0,.14,2.42,18.94,18.94,0,0,0,.94,3.44c.14-1,2.26-2.74,2.62-1.47a15.45,15.45,0,0,0-1.09,3.31,26.38,26.38,0,0,1-.84,3.82c.26-1.44,3.23-.18,3.33,2.11-.45-.32-2.78.41-3.15-.37l1.63,2.65c.54.9,1,1.81,1.52,2.73-.56-1.38-2.38-.13-3.12,1.12.26-.29.29.9.3,2.34a29.3,29.3,0,0,0,0,3.88l.67-2.33a9.51,9.51,0,0,0,1.66,6.28,13,13,0,0,1,1.25,2.62,8.25,8.25,0,0,1,.29,3.81c-.49-.84-3.33-2.17-4,.92a34.59,34.59,0,0,1,3.55,5c1.3,2.36,2.59,5.38,2.48,8.34l-1,.93c0,1.51,0,3-.07,4.56-.65-1.6-1.79-4.56-2.82-7.55-.48-1.49-1.11-3-1.59-4.43s-.9-2.68-1.2-3.73c-1,2.21-1.05.51-1.51,3.94-.95,1.08-.86-2-.75-3-.58,2.61-1.11,5.22-1.87,7.77.86,0,1,1.58,1,3.18s-.07,3.19.65,3.21c.24-3,.18-6,.23-8.95.86,0,1.76,1.43,2.26,3.64a14.08,14.08,0,0,1,.36,3.78,17.28,17.28,0,0,1-.75,4.23c-1,1.26-2.58-1.87-3.16-1.88a7.92,7.92,0,0,1-.12,3.16,7.18,7.18,0,0,1-.9,2.78l-.12-2.59a8.25,8.25,0,0,0-.64,4.3,6.2,6.2,0,0,1-1.67,4.48,8.15,8.15,0,0,1-1.82,2c-.7.63-1.22,1.18-.81,1.48,2.6-1.23,8.28.47,9,2.43-.16.2-1.31,1.74-2.59,3.34a24.92,24.92,0,0,1-2,2.26,11,11,0,0,1-1.6,1.44c-2.32,1.36-1.73-4.58-3.73-3.41.38.27.35,1.61.29,2.15-1,1.1-1-1.15-2.16,1.69,1.27,1.23-3.13,5.39.58,1.93a8.8,8.8,0,0,1-1.52,2.79,26.57,26.57,0,0,0-2,2.94c.76-.2,1.15.95,1.18,2.53a11.83,11.83,0,0,1-1,5c-.25-.39-1.11-.13-1.52,0-.92,1.28-1.78,2.38-2.59,3.39s-1.67,1.86-2.47,2.73L256,242.31c-.86.89-1.74,1.85-2.69,3-.66.16-2.86,1.94-2.62.55a7.8,7.8,0,0,1-1.64,3.09c-3.43,1.5,2.56-3-.54-2.33.56.8-2.09,4.32-3.57,6.47.8.26,2-.67,3-2.05a41.82,41.82,0,0,0,2.65-4.22c.78.69.82,2.22.19,4.25a18.22,18.22,0,0,1-1.45,3.36,34.66,34.66,0,0,1-2.49,3.68c-1.62,1.95-2.31,2-2.56,1.75s-.16-.87-.38-.47a20.2,20.2,0,0,0-3.76,3.78,17.41,17.41,0,0,0-1.79,2.82,10.77,10.77,0,0,1-1.73,2.49,12.38,12.38,0,0,1-3.79,2.41c-3.3.7-1.63-2.11-2.74-2.5a15.09,15.09,0,0,1,4.14-2.66,19,19,0,0,0,3.46-2l-3,1.57a11.61,11.61,0,0,1,4-3.64,12,12,0,0,0-3.19,1.79c-.69.48-1.44,1-2.26,1.64l-2.63,1.8c-.91.63-1.84,1.3-2.81,1.92l-2.93,1.76a33.68,33.68,0,0,1-5.53,2.71c-.86,1-2.53,2.49-1.38,2.45l1.86-1.27c2.35-.1-3,3.41-.24,2.43a39.81,39.81,0,0,1-3.85,3.33,20,20,0,0,1-2.38,1.56,17.67,17.67,0,0,1-2.9,1.12L209,281.8c.25.37,2.95-.32,3.86-1.24-.68.68-2.41.88-4.08,1.24a11.06,11.06,0,0,0-2.32.73,2.74,2.74,0,0,0-1.51,1.38c1.07-.05,2.16-.06,3.22-.17-1.26,1-2.69,2.13-4.25,3.23a16.53,16.53,0,0,1-2.48,1.47,12.58,12.58,0,0,1-2.76.91c2.17.86.79-.43,4,.31-3-1.16,9.42-3.59,4.93-4.29a7.74,7.74,0,0,0,4.23-.32,18.27,18.27,0,0,1,4.77-.93c-.33-.4-1.62-.26,1.45-1.53a3.15,3.15,0,0,1,.44-.73l.22-.06-.19,0c.09-.14.1-.16-.07,0a4,4,0,0,1-1.85.07c.47-.89,1.88-1.87,3.28-2.88a28.14,28.14,0,0,0,3.43-2.7c1.8-.75-.41.9.78.84.62-.68,1.21-1.38,1.78-2.11.79.82,5.36-1.21,1.82,1.82l3.54-2.19a18.24,18.24,0,0,0,6.7-4.24c1.7-1,3.14-4,2.34-2.29.78-.77,1.57-1.51,2.34-2.29l2.23-2.4.23.17c2.52-2,4.54-4.7,6.84-7.2a39.14,39.14,0,0,1,7.72-7.31c.59-.92,1.19-1.85,1.95-2.89a29.22,29.22,0,0,1,2.82-3.56l1.2,0a48.32,48.32,0,0,1,3.32-4.25c1.2-1.48,2.25-2.84,2.11-3.64a6.42,6.42,0,0,0,2.84-2.32,23.79,23.79,0,0,0,1.41-2c.45-.73.85-1.54,1.27-2.35.81-1.65,1.66-3.33,2.35-4.94a34.78,34.78,0,0,1,2-4.11l-1.06-.7a31.73,31.73,0,0,0,1.89-4.73c.28-.84.55-1.7.82-2.61s.47-1.88.71-2.9l-1.13-.15c.17-1.84,1.21-3.88,2.21-6.24.52-1.18,1.09-2.41,1.62-3.69a31.28,31.28,0,0,0,1.25-4c.32.48-.15,1.85-.66,2.77a14,14,0,0,0,2.09-4.84,34.5,34.5,0,0,0,.55-5.28c.13-1.76,0-3.52.22-5.18a16.33,16.33,0,0,1,1.08-4.72,6.7,6.7,0,0,1,.41-3.69,1.25,1.25,0,0,0,0,.39c0-.16.06-.39.08-.63a18.57,18.57,0,0,0,.77-2.07,11.89,11.89,0,0,0-.73,1.74,29.45,29.45,0,0,0-.14-4.74l1.24-.69c0-.14,0-.26,0-.41.54-1.71-.48-1.4-1.44-.52a9.1,9.1,0,0,0-.65-2.33c1-.67.82-1.82.68-3a7.84,7.84,0,0,1,0-1.81,2.6,2.6,0,0,1,.76-1.63c-.52-.58-.79-2.77-1.2-4.9s-1.15-4.2-2.24-4.56c.27-.08.36-.6.45.33a10.87,10.87,0,0,0-.74-5.51l1.4-1-1.3-1.94-1.38-1.9c.46-2.65.8-3.83,2.41-1.52-.73-1.44-1.17-2.45-1.51-3.24s-.58-1.34-.79-1.88a20.42,20.42,0,0,0-2.28-4.32h1c-.54-1.8-2.61-4.28-2.14-5.58a15.8,15.8,0,0,0-.81-5.15,33.18,33.18,0,0,0-1.17-3.6l-1.52-4c-2.32-5.54-5.3-11.64-7.33-16.72-.74,1.64-1,.38-1.51-1.17s-1.1-3.39-2.15-3c.24-.9-.25-2.39,1.19-1.23-.88-1.09-1.55-2.09-2.17-3s-1.09-1.79-1.58-2.59a8.77,8.77,0,0,0-4-3.81c.15-.93,1.53.31,1.5-.38-.4-.27-1.56-1-1.6-1.74s.95.29,1.74.8a13.24,13.24,0,0,0-2.44-2.41,5.11,5.11,0,0,0-2-.83,4.63,4.63,0,0,0-3,.81,8.61,8.61,0,0,0-1.8-3,6.18,6.18,0,0,0-2.76-1.31c-.2-1.14-.86-2.81,1.72-.46l-1.75-2.06-1.29-1.48c-.48-.49-1-1-1.48-1.47-2-1.92-4-3.55-4.6-3-.2-.7-2-1.86-2.51-2l-2-1.77c-.53-.47-1-.84-1.46-1.21-.91-.74-1.84-1.45-3.59-2.7l.79.94c-2.45.48-3.11-1.75-6.07-3.51l.19-.11a19.63,19.63,0,0,0-3.07-2.6,7,7,0,0,0-1.47-.77,6.21,6.21,0,0,1-1.43-.78c-.33-.23-.72-.55-1.22-1s-1.13-.89-1.89-1.53l-.21,1.24c-.95.94-2.25-.2-3.9-1.77s-3.77-3.35-6-3.89l1.18,1.33c-1.28-.17-2.49-1.62-3.69-3.24s-2.38-3.43-3.53-4c-.44-.39,1,0,1.74.1-5.72-3.75-1.38,1.14-6.11-.22-.59-1.09,1.83-1.65-1.3-2.87-.69-.57-3.23-.67-6-.93a30.9,30.9,0,0,1-4.3-.47,13.36,13.36,0,0,1-2-.54,8,8,0,0,1-1.71-.75c.84.83,1.65,1.66-.68,1.68-1.73-.21-3.88-1.39-6.13-2.08s-4.47-1.3-6.17-.41c-.42-.23-.57-.41-.56-.58-1.37.15-3.54.06-5.58.24a13.52,13.52,0,0,0-4.77.93c-.56-1.09-1.9-1.45-3.56-1.55a23.83,23.83,0,0,0-5.56.51,48.45,48.45,0,0,1-5,.74c-1.33.09-2.22-.16-2.29-1.11-1.36.16-2.72.27-4.07.48l-4,.64.15-.41a17.07,17.07,0,0,0-5.61,1.28A11.57,11.57,0,0,0,128,29.71c-1.22,0-.45-.52-.39-.74-3.8.49-5.91.78-7.72,1.53a26.65,26.65,0,0,0-6.15,3.57l-1-1a6.75,6.75,0,0,1-2.44.84c-1.21.27-2.72.67-4.43,1.11-.85.23-1.74.47-2.65.76s-1.8.66-2.7,1a21,21,0,0,0-5.11,2.87,1.2,1.2,0,0,1,.5-.87C92.43,41.38,87.59,43,83.58,45s-7.16,4.1-7.1,6.8C75.16,53.14,74,54.64,72.75,56c5.81-4.11.36,2.19,3.11,1a10.39,10.39,0,0,1-3.66,2.1c-1,.35-1.53.14-.27-1l.56-.15c-.56-2.69-7.26,5.08-8.13,3.84q-7.77,7.23-14.63,15L46.4,80.73c-1.06,1.35-2.08,2.72-3.1,4.08-.51.69-1,1.35-1.51,2L40.39,89c-.9,1.42-1.88,2.8-2.68,4.27.78-.15,1.54-.3,2.34-.42-.82,1.31-1.56,2.65-2.34,4-1,.85-2,.76-.37-2.12a4.57,4.57,0,0,0-1.58,3.07,4.79,4.79,0,0,0,0,2.49C32.3,105.75,35,97,34.1,98.78L33,101.29l.46-.46c-.15,1.16-.06,1.86-.17,2.72A7,7,0,0,1,33,105a17.5,17.5,0,0,1-.84,2.2c-1.32,2.17-1.54.75-2,1.64-.11,0-.3.23-.64,1.39-.77,1.8-1.47,3.64-2.2,5.46L29.45,114c-.24,2.66-1.93,5.11.5,3.12-1.81,1.43-3.73,6.55-5,11.64-.36,1.26-.58,2.54-.82,3.75s-.47,2.34-.67,3.35a22.58,22.58,0,0,1-.92,4.15,21.52,21.52,0,0,1,.17,2.76c0,.92,0,1.85,0,2.79-.09,1.89-.38,3.85-.53,6.05.36-1.08,2-1.59,1.59,2.13-1.6-.78-2.14.93-2.41,3.22s-.49,5.16-1.57,6.74c.74-1.4.94,1.32,1.22,3.83s.82,4.78,1.74,2.55c0,3.17-1.23.28-1.81,2.76a56.81,56.81,0,0,1,1.1,5.88c.13,1,.22,2.08.34,3.15l.38,3.25c.13,1.09.21,2.22.38,3.34s.37,2.25.56,3.38a43.19,43.19,0,0,0,1.73,6.8c.46,0,.67-1.68,1.84.07-.28,1.79-.4,3.56-.57,5.38.4.85,1.13,1,1.72,1.5s1,1.14.94,3c.17-.58.44-1.43,1-.33,2.25,8.94,6.91,17.26,12.15,25s11.08,15.1,16.28,23.19c-1.16-2.43.08-1.26,1.45.11-.74-1,.78-.75,1-1.35,1.49,2.16,3,4.38,4.57,6.52,1.09-.15,2.69,1.18,4.24,2.47s3.13,2.41,3.91,2L71.91,265c1.88.26,1.58-1.23,1.14-3s-1-3.83-.07-4.59a4.54,4.54,0,0,1-2.58-1.6,29.59,29.59,0,0,1-2.07-3.09,23.31,23.31,0,0,0-2.41-3.27,8.41,8.41,0,0,0-3.62-2.38c-.52-1.24,1.3.25,1.24-.62-1.77-.3-3-1.52-4.82-4.25l.43.11a28.55,28.55,0,0,1-2.06-2.41c-.6-.78-1.16-1.53-1.69-2.26a40,40,0,0,1-2.75-4.32c-.85-1.46-1.7-2.94-2.55-4.68s-1.89-3.59-2.94-5.88L46.51,224a11.58,11.58,0,0,1-1.09-3.56c-2.8-1.32,2.93,5.35.1,4.35a7.23,7.23,0,0,0-.89-3.71c-.65-1.47-1.44-3.19-2.28-4.85a31,31,0,0,1-1.94-4.81c-.42-1.43-.56-2.61-.09-3.33-1.19-3.09-.9,1.43-2.1-1.69l.37-1.09-1.2-.45a4.94,4.94,0,0,1-.21-2.56,1.61,1.61,0,0,1,.69-1.18,11.57,11.57,0,0,0,.86,1.87,14.76,14.76,0,0,0-1.42-4.92A17.54,17.54,0,0,1,36,194.54c.15,1.06.28,2.13.44,3.18-.78-2.12-1.54-4.39-2.16-6.76s-1.2-4.81-1.61-7.27L32,180c-.19-1.22-.39-2.43-.62-3.62-.5-2.37-.84-4.69-1.42-6.86l-.5.71c-.19-.83-.35-1.54-.45-2.16s-.11-1.16-.13-1.63A14.29,14.29,0,0,1,29,164.1c.09-.72.16-1.46.24-2.48a31.48,31.48,0,0,0,0-4.19l.13.27a12.84,12.84,0,0,1-.52-5.53c.54,1.9,1.46-3.42,2-.93-.28-3.65-.31-4.58-.61-5.21a12.34,12.34,0,0,1-1.4-3.52l1.09-1a14.75,14.75,0,0,1-.66-2.12,11,11,0,0,1,.11-3.61c.15,3.16,1.86-2.06,2.19,1.49a17.94,17.94,0,0,0,1.61-4.89,35.07,35.07,0,0,0,.52-4c.17-2.38.49-4.23,2.42-5.48-.68-2.08-1.52-.59-2.18,1.18s-1,3.84-1,2.79c-.62.71-.89-.13-.9-1.46a13.24,13.24,0,0,1,.88-4.23c.4-1.2,1.48-2,2.79-3.14a13.51,13.51,0,0,0,2-2.19,11.62,11.62,0,0,0,.94-1.54,15.45,15.45,0,0,0,1-1.91c-.26.56-.09.68-.35,1.24a8.39,8.39,0,0,0,1.32-3.25,10.56,10.56,0,0,1,.6-1.77A6,6,0,0,1,42.36,107c-.69-2.1,1.69-3.28.14-4.59l-2.1,5.38c.47-1.57.53-3.3.9-5.21a13.13,13.13,0,0,1,3-6,11.16,11.16,0,0,1-.45,3.34c1.28-1.08,1.08-2.87,2.47-4,.7.68-.06,2.24-1,4.12-.49.94-1,2-1.48,3a10,10,0,0,0-.72,3c.75-.56,1.1-2.19,1.5-3.34s.76-1.85,1.29-.59c-.6-1.72.22-3,1.2-4.48a10,10,0,0,0,2.51-5.27l.85.88a9.32,9.32,0,0,1,1.21-3.11l0,2.67c.86-3.51,4.57-4.73,6-7.64-2,2.68-2.55,2.78-2.86,2.42s-.44-1.2-1.61-.26C57,79.61,58.45,85.22,64,77.84c-.72,1-3.61,3.13-2.75,1.26a21,21,0,0,1,2.27-1.82,9.73,9.73,0,0,1,2.19-1.17c4-4.65-1.53-.14-.25-2.56,2.45-.56,1.73-2.57,3.4-4.83l.84.86a16.77,16.77,0,0,0,1.61-1.4,5.31,5.31,0,0,0,.84-.94A1.57,1.57,0,0,0,72.42,66c-.11-.71-.26-1.35,2.48-3.12l-1,3c.76-.82,1.48-1.69,2.26-2.49l.33,1.48a15,15,0,0,1,2.83-3.12,21.05,21.05,0,0,1,3.49-2.19c-1.17-.21-.9-2,1.69-3.9,2.19-.62-.39,1.58,3.29-1-.44,1.2-.88,2.49-3.07,2.72.06.44-.38,1.19-.32,1.63,2.29-.71,4.88-3,6.22-3.9a6.31,6.31,0,0,1-1.6.69c.75-.8,1.5-1.63,2.28-2.42l2.4-2.32c1.1-.11.57.61.06,1.31,1.08-.74,1.56-1.73,3.24-2.69,0,1.09.56,1.88-1.54,3.62C97,52,98.7,50.81,100.35,49.56c.55.18,3.29-.34,2.74.33,1.65-.41,3.31-1.69,5.15-3s3.9-2.52,6.15-2.87a3.61,3.61,0,0,1,1.4-1c1-.28,2-.5,3-.7s2-.32,3.05-.53A24,24,0,0,0,125,41a17.89,17.89,0,0,0,3.3-1.36c1.05.37,2.08.68,3.12,1.1,1.86-.53.83-.91.09-1.37s-1.18-1,2-1.91c4.49-1.38,1.95,1.14,3.62,1.38a28,28,0,0,1,4.29-2.07,10.89,10.89,0,0,1,6-.31A24.65,24.65,0,0,1,143.62,37Zm48,3.94c-.48,0-1.23,0-1.91-.06s-1.3-.17-1.54-.6a1.72,1.72,0,0,1,1.72-.41A15.1,15.1,0,0,1,191.64,40.9ZM254.5,79.51a4.15,4.15,0,0,1-1.81-2.5A7.8,7.8,0,0,1,254.5,79.51Zm-21,192.77a.54.54,0,0,0,.05-.11C235.73,271.23,235,271.55,233.53,272.28Zm-4.23,2.22c-.31.4-.2.52.06.55.12-.43,1-1,2.07-1.61C231,273.37,230.34,273.51,229.3,274.5Zm-199-165,.65-.72C30.5,110.82,30.43,110.17,30.34,109.51Z"/><path class="cls-7" d="M247.63,74.21a1.07,1.07,0,0,1,.19-.74C247.41,73.34,247.24,73.49,247.63,74.21Z"/><path class="cls-7" d="M114.54,44a.8.8,0,0,0-.15,0,.5.5,0,0,0-.07.25Z"/><path class="cls-7" d="M268.3,215.77a4.81,4.81,0,0,1,1.32-1.3C269.38,214.3,269,214.56,268.3,215.77Z"/><path class="cls-7" d="M207.84,288c.93-.45,1.81-1,2.71-1.5a6.36,6.36,0,0,1-2.69.74C208,287.48,208.73,287.64,207.84,288Z"/><path class="cls-7" d="M180.83,288.4c-.39.22-.89.18-1.27.4l.21.53C181.57,289,182.72,288.3,180.83,288.4Z"/><path class="cls-7" d="M203.75,285.33c-.29-.43-.84-.39-1.55-.13a12.29,12.29,0,0,0-1.18.52l-1.38.62a2.42,2.42,0,0,1,.35-.12c-.05.76.41.86,1.13.62A15.41,15.41,0,0,0,203.75,285.33Z"/><path class="cls-7" d="M199.2,286.52a12.42,12.42,0,0,1-1.83.64C197.32,287.78,198.15,287,199.2,286.52Z"/><path class="cls-7" d="M224.52,278.24c-1,.27.09,1.43-.62,1.36-.17.84,1.12-.35,1.87-1.31.39-.48.61-.93.49-1S225.64,277.41,224.52,278.24Z"/><polygon class="cls-7" points="201.01 282.83 202.14 283.73 202.85 282.37 201.01 282.83"/><path class="cls-7" d="M216.18,277.1l-3.09,1.17c.14.17-.18.47-.6.78C214.32,278.18,216.42,277.39,216.18,277.1Z"/><path class="cls-7" d="M212.49,279.05a10.07,10.07,0,0,0-2.32,1.29A15.74,15.74,0,0,0,212.49,279.05Z"/><path class="cls-7" d="M205,280.86l1-.11,2.14-.86C207.12,280.21,206.1,280.6,205,280.86Z"/><path class="cls-7" d="M245.15,257l2.34-2.74c0-.56-.92-.07-1.76,1C245.32,256,244.47,257,245.15,257Z"/><path class="cls-7" d="M234.77,261.34a3.27,3.27,0,0,1,1.81-.21l-.88-1.27Z"/><path class="cls-7" d="M242.31,254.46c0-.56,2.79-4.38-.31-1.27C242.05,253.76,239.72,256.39,242.31,254.46Z"/><polygon class="cls-7" points="274.42 212.67 274.08 213.51 276.44 214.42 274.42 212.67"/><path class="cls-7" d="M279.11,166.78c-.85,4,1.52,1.06.52,4.64.54,1,.82-2.94,1.26-1.93C280.41,167,280.84,165.75,279.11,166.78Z"/><path class="cls-7" d="M280.89,169.49c.08.4.18.83.31,1.28A5,5,0,0,0,280.89,169.49Z"/><path class="cls-7" d="M69.05,266.16c.6.77,1.26,1.45,1.9,2.18L70,266.55C69.69,266.44,69.38,266.29,69.05,266.16Z"/><path class="cls-7" d="M74.48,268l-.44,1.7,2.21-.15C75.71,269.24,74.65,268.6,74.48,268Z"/><path class="cls-7" d="M197.38,46.24l.31-.3c-.22-.53-.77-.76-1.87-1.24Z"/><polygon class="cls-7" points="163.95 37.92 164.55 37.99 163.52 36.47 163.95 37.92"/><path class="cls-7" d="M135.22,41.23c1.16-.18,2.48-.68,3.66-.76C136.38,41,134.61,39.51,135.22,41.23Z"/><path class="cls-8" d="M314.29,159.41c-.07,1.47,1.13.94,1.35,1.16C315.32,158.09,314,159.48,314.29,159.41Z"/><polygon class="cls-8" points="309.57 135.65 310.13 135.99 308.32 132.73 309.57 135.65"/><path class="cls-8" d="M304.49,113.91c-.67,1.31-.06,3.22.8,5.31a19.78,19.78,0,0,1,1.92,6.44l-.31.74,2,1.4c-.7-2.34-1.58-5-2.51-7.44A30.78,30.78,0,0,1,304.49,113.91Z"/><path class="cls-8" d="M304.6,101c-.47,1-1.61-2.21.82,2.75a5.12,5.12,0,0,1,0-.56C305.22,102.78,305,102.14,304.6,101Z"/><path class="cls-8" d="M305.42,103.23c.94,2.24.05-1.71,0,0Z"/><path class="cls-8" d="M300.64,93.14l2,2.61c.16-.8-.92-3.45-.17-2.63C300.72,90.29,300.58,91.12,300.64,93.14Z"/><path class="cls-8" d="M298,91.07c.34.44.68.88,1,1.34C299.05,92.06,299,91.63,298,91.07Z"/><path class="cls-8" d="M301,95.31l-2-2.9c-.11.56-.7.88.87,1.35C299.19,93.76,300,94.14,301,95.31Z"/><path class="cls-8" d="M301.53,97.23a11.11,11.11,0,0,1,.34,2.35c-.07.46-.34.33-1.3-1,1.29,2.7,2.12,3.76,2.39,3.41.12-.17.1-.68-.12-1.5A15.64,15.64,0,0,0,301.53,97.23Z"/><path class="cls-8" d="M302.09,113.48c.06.78.12,1.56.12,2.36l1.2,1.71a8.17,8.17,0,0,1-.63-2.49C302.59,114.11,302.37,113.31,302.09,113.48Z"/><path class="cls-8" d="M292.1,75.19c-.48.06-.41,1.52-.76,2,.57.56,1.1,1.16,1.63,1.75C292.66,77.73,291.63,75.67,292.1,75.19Z"/><path class="cls-8" d="M291.34,77.2l-2.52-2.53C290.42,77.33,291,77.62,291.34,77.2Z"/><path class="cls-8" d="M295.7,91.59l1,1.08.94,1.11L299.53,96c-1.42-1.84-2.81-3.68-4.34-5.41Z"/><path class="cls-8" d="M284.53,64c.68.33,1.33.68,2,1l-1.65-1-1.72-.94Z"/><path class="cls-8" d="M278.81,57.12c1.62.59-.25-2.46,1.18-1.6a21.78,21.78,0,0,0-5.37-3.83A14.92,14.92,0,0,1,278.81,57.12Z"/><path class="cls-8" d="M271.76,50.06a27.49,27.49,0,0,0,2.86,1.63A12.88,12.88,0,0,0,271.76,50.06Z"/><path class="cls-8" d="M285.69,69.62a4,4,0,0,0-.58-3l-.2,1.84C285.14,68.84,285.41,69.23,285.69,69.62Z"/><path class="cls-8" d="M284.9,68.55v-.06L283.24,66Z"/><path class="cls-8" d="M285.88,69.91l-.19-.29C285.66,69.8,285.68,69.89,285.88,69.91Z"/><path class="cls-8" d="M292.45,83.1c-1.62-1.43-4.33-4.66-3.22-.62C290.68,83.3,290,81,292.45,83.1Z"/><path class="cls-8" d="M285.59,72.16c.63,1,1.18,2.16,1.77,3.23.23-.24.27-1.06,1.11-.4C287.5,74.05,286.59,73.07,285.59,72.16Z"/><polygon class="cls-8" points="284.23 70.92 285.59 72.16 284.89 71 284.23 70.92"/><path class="cls-8" d="M275.22,55.55a11.51,11.51,0,0,1-2-1.57c-.66-.59-1.34-1.24-2.05-1.92.64.85,1.34,1.67,2,2.52s1.32,1.67,2,2.46C275.61,57,276.74,57.24,275.22,55.55Z"/><path class="cls-8" d="M280,61.82l-.28-.24C279.79,61.82,279.87,62,280,61.82Z"/><path class="cls-8" d="M257,38.72l.09.37a1.18,1.18,0,0,1,.19-.11Z"/><path class="cls-8" d="M275.19,57.45a5.77,5.77,0,0,0,2.59,2.32c-.87-.82-1.76-1.72-2.65-2.73C274.91,57.05,274.81,57.11,275.19,57.45Z"/><path class="cls-8" d="M267.53,46.56c.43.75,1,1.56,1.48,2.43C268.74,48.12,268,46.53,267.53,46.56Z"/><path class="cls-8" d="M279.67,61c.06,0,.13.09.19.15C279.74,60.52,279.68,60.65,279.67,61Z"/><path class="cls-8" d="M279.67,61a10.55,10.55,0,0,0-1.89-1.18,22.39,22.39,0,0,0,2,1.81A2.35,2.35,0,0,1,279.67,61Z"/><path class="cls-8" d="M247.59,41.32c.45-.37,1.62-.14,2.94.56a10.34,10.34,0,0,1,2,1.42,9.83,9.83,0,0,1,1.64,2.12c3.13,1.58,4-2.67,3-6.33-.42.33-.67.61-3.94-1.08.67,1.21,5.17,6.24,2.21,5.06-2-1.34-2.66-2-3-2.59a11.73,11.73,0,0,0-1.12-2.09c.33,1.16-1.18.64-2.8.13s-3.44-.92-3.63.2c1.26.56,2.45,1.23,3.67,1.86C248.35,40.89,246.89,40.39,247.59,41.32Z"/><path class="cls-8" d="M262.29,43.75l1.18.93A26.35,26.35,0,0,1,260.63,40c-2.27-1.23-2.93-1.24-3.31-1.06,1.82,1.67,3.69,3.28,5.46,5Z"/><path class="cls-8" d="M268.32,49.36c-1.67,0-4.66-2-4,.42,1.61,1.44,2.26,1.87,2.88,2a5.14,5.14,0,0,1,2.18.9c-5.08-4.88,1.91,1-1.11-3.2a34.61,34.61,0,0,1,2.88,2.56C270.37,51,269.65,50,269,49l.06.17,0,0h0c.1.33.11.47-.07.15,0,0-.09-.06-.12-.09a1.14,1.14,0,0,1-.56.1c-1.24-1.67,0-.46.56-.1a.6.6,0,0,0,.19-.06v0c-.89-.79-1.84-1.53-2.78-2.27l-2.82-2.21A59.74,59.74,0,0,0,268.32,49.36Z"/><path class="cls-8" d="M285.05,80.69c0-.23.06-.27.13-.33C284.81,80.06,284.63,80,285.05,80.69Z"/><path class="cls-8" d="M284.16,77.92A4,4,0,0,1,286,79.77c.44,1.39-.52.31-.82.59.81.63,2.58,2.45,1.46-.49l-.4-.32c-1.14-2.56-1.8-6.47-1.39-6.15A10.22,10.22,0,0,0,284.16,77.92Z"/><path class="cls-8" d="M276.69,63.39c-1.33-1.43-2.78-2.73-4.19-4.06l1.1,2.92.4-.53C275.9,64.41,276,63.39,276.69,63.39Z"/><path class="cls-8" d="M256.92,37.8l1.44-.5c-1.26-.3-2.59-.49-3.86-.73Z"/><path class="cls-8" d="M250.73,33.13l.92-.74c-.68-.23-1.39-.43-2.08-.65Z"/><path class="cls-8" d="M30.92,234.37,32,235.58A9.31,9.31,0,0,0,30.92,234.37Z"/><path class="cls-8" d="M25.5,224.19h-.64C25.38,224.53,25.69,224.62,25.5,224.19Z"/><path class="cls-8" d="M72,25.44c-2.7.46-6,.64-5.08,1.54l1.35.62A11.71,11.71,0,0,1,72,25.44Z"/><path class="cls-8" d="M7.08,130.78l.5-.62-.81-1.85C6.87,129.06,6.92,129.89,7.08,130.78Z"/><path class="cls-8" d="M11.88,133.42l-1.34,2.91A16.55,16.55,0,0,0,11.88,133.42Z"/><path class="cls-8" d="M74.42,279c.74,0,1.47,0,2.23,0C74.28,277.33,75,278.55,74.42,279Z"/><path class="cls-8" d="M178.14,3.61a30,30,0,0,0-5.35-1.44C175.35,3.22,177.3,4.56,178.14,3.61Z"/><path class="cls-8" d="M17,236.86c.72.81,1.17,1.08,1.4.92C17.68,236.94,17.16,236.51,17,236.86Z"/><path class="cls-8" d="M166.45,1.64c.37.16.75.25,1.14.39a23.7,23.7,0,0,1,5.2.14A9.44,9.44,0,0,0,166.45,1.64Z"/><path class="cls-8" d="M275.42,241.42c.14-.1.27-.26.41-.35C275.71,240.94,275.58,241.13,275.42,241.42Z"/><path class="cls-8" d="M311.35,181.52c0,.72-.16,1.87-.28,3A11.7,11.7,0,0,0,311.35,181.52Z"/><path class="cls-8" d="M224.36,16.54c1.52.64.3,0,0,0Z"/><path class="cls-8" d="M229.14,24.53a.9.9,0,0,0-.86.25A1.14,1.14,0,0,1,229.14,24.53Z"/><path class="cls-8" d="M150.35,9.17h-.14C150.69,9.4,150.6,9.36,150.35,9.17Z"/><path class="cls-8" d="M226.32,18.16a15.21,15.21,0,0,0-1.71-1.29A18.59,18.59,0,0,0,226.32,18.16Z"/><path class="cls-8" d="M226.29,17.48l1.23.76C227.8,18.15,227.69,18,226.29,17.48Z"/><path class="cls-8" d="M222.24,15.65a21,21,0,0,1,2.37,1.22c-.26-.21-.35-.33-.25-.33Z"/><path class="cls-8" d="M175,307.19a2.05,2.05,0,0,1,.34.07C176.78,306.55,176.12,306.72,175,307.19Z"/><path class="cls-8" d="M48.64,61.35a1.11,1.11,0,0,0,.07-.16l-.18.13Z"/><path class="cls-8" d="M45.75,66a5.58,5.58,0,0,1,2.78-4.68c-1.3-.38-2.62-.78-3.91-1.12C45,62.16,45.35,64.1,45.75,66Z"/><path class="cls-8" d="M47.47,256.41l-1.6-3.57c4.35,2.21,6,5,4.87,1.36-.81.56-1.83.17-3-.69a22.52,22.52,0,0,1-3.49-3.58,31.53,31.53,0,0,0-3.4-3.7c-1-1-2-1.46-2.88-1l-.77-2.5c.38.6.64.56,1,1.15-1.25-5-4.39-1.32-7.35-6.93-.9-2-1.11-3.65,0-2.59l-3.26-3.73c-.63-1.27.13-1.29.77,0-1.3-2.1-2.46-4.28-3.7-6.42h.13a27,27,0,0,1-3.73-3.38c-.27-2,.77.7,1,0-.85-1.13-1.74-2.24-2.56-3.4.16-1,.78-.77,1.48,0a11.07,11.07,0,0,1,2.09,3.43c1-2.56.43-3.2-.55-4.3s-2.28-2.71-2.67-6.94c.58,1.15,1.24,2.27,1.85,3.4a7.92,7.92,0,0,0,.12-4.5,32.21,32.21,0,0,1-.73-5.55c-.18.58-.33,2.87-.71,4.57s-1,2.81-2.17.86a9.6,9.6,0,0,0-2-4.93c1.32-.43.37-2.57-.51-5.36l1.84-.29a7.26,7.26,0,0,0-1.73-2.49,8.16,8.16,0,0,1-1.65-1.55c-.62-3.48.6-4.48,1.67-5.52-.34-2.75-.74-1.71-1.24-.76s-1.09,1.8-1.85-1.46a24,24,0,0,0-.31-3.31,29.46,29.46,0,0,0-.57-3.09c-.5-2.07-1.3-4.22-2-7,.38-3.35,1.17.48,1.61-.74l-1.7-2.81c0-.72.45-.51.69-.41-.7-2.43-1.87-.1-2.48-4-1-.5-.39-2.56.35-5a20.43,20.43,0,0,0,.91-3.93,8.37,8.37,0,0,0-.43-3.92c.62-1.16,1.09.64,1.83.31-.5-3.32-.67-4.76-.91-6.06s-.46-2.45-1.14-5.31c.6-1.5,1.18-3,1.89-4.44-2,3.16-2.83-1.39-3.46-5.55a32.16,32.16,0,0,0-2,2.71l.07-3.22c0-1.08.14-2.14.2-3.22.47-.68,1,.09,1.47,1.26,0-.45-.11-.88-.17-1.22,1.17-2.06,1.94-.66,2.6,1.11-.53.66-1.08,1.32-1.62,2,.82,1.75,1.8,3.37,2.92,3.26a6.49,6.49,0,0,1-.14-2.07c.23.45.45.75.66.6s-.09-.88-.31-1.95l2.33-.92-.72-.5,1.52-3.72c.49-1.24,1.11-2.44,1.66-3.65-.11-1.5-.3-3-.47-4.52s-.22-3.07-.25-4.74c0-.83,0-1.69,0-2.58s.16-1.79.29-2.74.32-1.94.55-3a23.82,23.82,0,0,1,.88-3.21c.44,2.7,2.07,1.42,3.66,2.24-1.38.76-1.81,2.51-2.2,4.54l-.6,3.23a14.82,14.82,0,0,1-.95,3.33c1-2.25,1.6-1.45,1.69-.77.28-2.83.85-5.58,1.32-8.41.65.37,1.06.06,1.49-.56a26.89,26.89,0,0,1,1.64-2.39c-1.66.16-1.46-1.45-.76-3.56.17-.52.37-1.08.6-1.64l.73-1.67a19,19,0,0,0,1.09-3c1,.27,1.47,1.46-.63,5,2-1.55,1.92-3.22,1.81-5s-.19-3.47,1.74-5c-.49.9-.89,1.3-.66,1.9a12.37,12.37,0,0,1,2.14-4.35c.95-1.28,1.91-2,1.89-1.2l-.53.87c1-1.38,2.17-3.14,3.36-5s2.59-3.85,3.72-5.76A49.62,49.62,0,0,0,40,68.17c.66-1.46,1-2.59.66-3.17a12.43,12.43,0,0,1,1.85,3.2,140.49,140.49,0,0,1,2-14.65c.38,1.13,2.21,1.8,3.54,2.83s2.17,2.4.69,4.81a17.68,17.68,0,0,0,2.18-1.79,21.92,21.92,0,0,0,2.59-3.24c-1,.52-4.12-.26-3.17-1.45a18.27,18.27,0,0,0,3.85-1.25l1.43-.7a24.27,24.27,0,0,1,2.75-1.12c-1.54.73-2.39-2.91-.3-4.58,0,.65,2.29,2.34,1.8,3.22l1.39-3.35c.47-1.13,1-2.19,1.52-3.3-.92,1.47,1.51,2.32,3.19,2.17-.46,0,.64-.89,2-1.89a35,35,0,0,0,3.65-2.64l-2.66,1c3.12-1.89,3.88-3.93,4.78-5.86a15.3,15.3,0,0,1,1.61-3,9.67,9.67,0,0,1,3.38-2.88c-.45,1,.24,4.63,3.62,3.16.16-.57.39-1.52.75-2.71a27.87,27.87,0,0,1,1.49-4c1.34-2.85,3.29-6.13,6.16-8l1.57.34c1.42-1,2.85-2.11,4.34-3.05-1.06,1.7-3.07,4.8-5.17,7.81-1.07,1.48-2.09,3.11-3.08,4.53s-1.91,2.68-2.68,3.69c2.75-.6,1.19.64,4.74-1.28,1.66.15-1.33,2.2-2.35,2.78,2.85-1.24,5.66-2.52,8.58-3.56-.59-.8.83-2,2.3-3.13s3-2.12,2.57-2.81c-3,1.81-5.77,3.93-8.57,5.91-.61-.79.13-2.64,1.87-4.63a16.9,16.9,0,0,1,3.32-2.92,19.84,19.84,0,0,1,4.48-2.19c1.88.09,0,3.71.4,4.26a9.34,9.34,0,0,1,3-2.05,8.56,8.56,0,0,1,3.23-1.06L107,23.42c1.88-.25,3.1-1.34,4.48-2.34a7.21,7.21,0,0,1,5.36-1.49,9.25,9.25,0,0,1,3.11.35c1.07.23,1.94.34,1.94-.25-2.93-1.6-5.23-8.1-3.87-10.12.3,0,2.53,0,4.91.15.6,0,1.2,0,1.79.11s1.17.14,1.71.22a13.14,13.14,0,0,1,2.45.52c1.45.62.64,1.82-.19,3s-1.68,2.31-.47,2.85c0-.54,1.27-1.43,1.83-1.75,1.69.16-.39,1.74,3.06.88.29-2,7.21-.75,1.43-1.86a10.29,10.29,0,0,1,3.66-.49,29.57,29.57,0,0,0,4.15-.09c-.7-.58.11-1.73,1.58-2.84a13.53,13.53,0,0,1,5.41-2.51c-.2.5.64,1.13,1,1.42,1.83,0,3.46.05,5,.12s2.89.3,4.26.46l4.16.45c1.42.2,2.93.38,4.63.51.59.51,3.77,1.36,2.31,2.08a9,9,0,0,1,4-.56c3.76,2.19-4.62-.32-1.83,2.09.38-1.07,5.5-1,8.53-1.07-.3-.93-2-1.39-4-1.41a48,48,0,0,0-5.79.39c.12-1.21,1.53-2.29,3.88-3.09a21.31,21.31,0,0,1,4.15-.93A40.37,40.37,0,0,1,184.82,8c2.94.19,3.46.81,3.4,1.21s-.71.74-.19.68a23,23,0,0,0,6.13.95,20.42,20.42,0,0,0,3.88-.25,12.8,12.8,0,0,1,3.52-.08,14.26,14.26,0,0,1,4.87,1.92c2.92,2.63-.87,3-.47,4.29a17.88,17.88,0,0,1-5.35-2.07,21.31,21.31,0,0,0-4.24-1.89l3.54,1.77a13.72,13.72,0,0,1-6.16-1.27,13.74,13.74,0,0,0,3.86,1.77c.93.32,2,.65,3.09,1l3.5,1.24c1.21.44,2.48.85,3.73,1.33s2.47,1,3.66,1.56,2.37,1,3.42,1.61,2,1.17,2.91,1.73c1.54.13,4.08.68,3.26-.37l-2.48-.88c-1.69-2.15,5.25.47,2.45-1.44a47.66,47.66,0,0,1,5.77,1.33A24.06,24.06,0,0,1,230,23.35a20.34,20.34,0,0,1,3.05,2l-.07,2c.18-.5-2.32-2.56-3.81-2.78,1.1.16,2.48,1.66,4,3a11.87,11.87,0,0,0,2.28,1.69,3.19,3.19,0,0,0,2.33.48c-.78-1-1.54-2-2.36-2.91,1.8.5,3.83,1.07,5.93,1.78a19.48,19.48,0,0,1,3.08,1.33,14.77,14.77,0,0,1,2.76,2c-.69-2.63-.95-.44-2.46-4,1,3.63-9.82-6.39-7.42-1.7a9,9,0,0,0-3.19-3.75A21,21,0,0,1,230,18.56c-.15.58.86,1.69-2.43-.32a4.46,4.46,0,0,1-1,.08l-.21-.16.16.16c-.19,0-.21,0,.06.05a4.61,4.61,0,0,1,1.33,1.69c-1.16.17-3-.48-5-1.11A34.46,34.46,0,0,0,218,17.57c-1.93-1.18,1.12-.23.26-1.31-1.07-.11-2.13-.19-3.21-.23.23-1.3-4.8-4.21.47-3l-4.48-1.83A21.51,21.51,0,0,0,206.8,9a15.13,15.13,0,0,0-4.3-1.17c-2.13-.9-5.95-.19-3.76-.63-1.26-.21-2.5-.44-3.76-.63l-3.78-.46V5.79c-3.61-1-7.52-1-11.45-1.51A45.86,45.86,0,0,1,167.59,2c-1.27.07-2.56.14-4.05.14A34.83,34.83,0,0,1,158.26,2l-.8-1.15a59.26,59.26,0,0,1-6.28-.2c-2.21-.13-4.2-.18-4.86.49A7.62,7.62,0,0,0,142.19,0a27.12,27.12,0,0,0-2.83,0c-1,.08-2,.25-3.09.41-2.1.36-4.27.72-6.24,1.17a41,41,0,0,1-5.23,1l.06,1.48-1.44.25L122,4.68c-.94.26-1.9.54-2.87.85s-2,.65-3,1-2.09.85-3.22,1.32L113.52,9c-1.84,1.1-4.48,1.51-7.38,2.19-1.46.31-3,.62-4.57,1a37.87,37.87,0,0,0-4.64,1.58c.23-.62,1.85-1.12,3-1.27a16.45,16.45,0,0,0-6,1.35A41.26,41.26,0,0,0,88.66,17c-1.74,1.09-3.35,2.36-5,3.35a19.54,19.54,0,0,1-5.18,2.21,7.9,7.9,0,0,1-3.75,2.14,1.48,1.48,0,0,0,.35-.28l-.64.35a21.69,21.69,0,0,0-2.47.71,15.2,15.2,0,0,0,2.13-.51,34.89,34.89,0,0,0-4.36,3.37l-1.5-.7-.37.29c-2,.67-1,1.42.49,1.72a10.29,10.29,0,0,0-1.74,2.21c-1.29-.46-2.28.47-3.32,1.42a8.15,8.15,0,0,1-1.67,1.28,3,3,0,0,1-2.06.4c-.19.89-2.06,2.64-3.79,4.49s-3.16,4-2.75,5.22c-.26-.19-.81.08,0-.64a12.64,12.64,0,0,0-4.67,4.47l-1.91-.62-.94,2.54L44.64,53c-2.81,1.38-4.15,1.88-3.08-1.22-.86,1.67-1.5,2.78-2,3.64s-.87,1.46-1.23,2a24,24,0,0,0-2.5,5.1l-.7-1C33.8,63.31,32.89,67,31.33,67.4A18.54,18.54,0,0,0,27,71.68c-.41.53-.86,1.08-1.29,1.67l-1.29,1.9-2.75,4.19c-3.62,6-7.33,13-10.71,18.34,2.05-.43,1.08.72-.07,2.22s-2.44,3.35-1.31,4c-1,.39-2.07,1.87-2-.28-.21.78-.43,1.51-.67,2.18s-.44,1.32-.67,1.92c-.46,1.19-.93,2.24-1.35,3.25a10.29,10.29,0,0,0-.88,6.33c-1,.5-.75-1.64-1.38-1.14,0,.55.11,2.16-.54,2.68s-.38-1.08-.44-2.17a15.37,15.37,0,0,0-.59,3.94,5.77,5.77,0,0,0,.59,2.46,5.35,5.35,0,0,0,2.82,2.27A10.23,10.23,0,0,0,3,129.22a7,7,0,0,0,.66,3.49c-.94,1-2.06,2.73-1.61-1.29l-.74,3.05-.51,2.22c-.14.79-.26,1.6-.37,2.4-.44,3.2-.61,6.17.35,6.37-.53.66-.38,3.15-.21,3.75l-.32,3.07c-.08.83-.11,1.52-.15,2.2C0,155.85,0,157.21,0,159.7l.34-1.37c2.13,2,.48,4.11.85,8.11l-.23-.1A21.6,21.6,0,0,0,.63,171a7.87,7.87,0,0,0,.28,1.92,7,7,0,0,1,.24,1.88c0,.47,0,1.05-.06,1.8S1,178.26.94,179.42l1.31-.65c1.53.24,1.34,2.25,1,4.87s-.57,5.84.46,8.32l.44-2c.71,1.32.19,3.45-.52,5.69s-1.59,4.58-1.33,6c-.07.69-.7-.87-1.09-1.7.38,7.94,2,.51,4,5.9-.62,1.29-2.81-.6-1.82,3.18-.06,1,1.59,3.49,3.27,6.32a36.35,36.35,0,0,1,2.5,4.36A16.12,16.12,0,0,1,10,222a9,9,0,0,1,.46,2.13c.21-1.36.44-2.69,2.05-.51a16,16,0,0,1,1.16,3.28l.49,1.94.59,2c.84,2.59,1.83,5.1,3.83,6.08.08.55,0,.82-.15.93.52.6,1.15,1.41,1.83,2.31s1.41,1.88,2.21,2.77c1.56,1.81,3.1,3.43,4.14,3.84-.64,1.28-.07,2.79,1,4.42A27.57,27.57,0,0,0,31.85,256,56.87,56.87,0,0,1,36,260.23c1,1.19,1.36,2.2.52,2.91,1.08,1.17,2.12,2.38,3.24,3.51L43.13,270l-.49.14a21,21,0,0,0,2.75,2.76,18.45,18.45,0,0,0,2.29,1.64,13.3,13.3,0,0,0,3.66,1.49c.86,1.14-.19.78-.43.88,3.06,3.23,4.78,5,6.73,6.22a31.12,31.12,0,0,0,7.56,3.33L65,288.1a7.89,7.89,0,0,1,2.46,1.71c1.08,1,2.49,2.1,4.07,3.41.8.64,1.64,1.31,2.53,2s1.86,1.24,2.84,1.83,2,1.14,3,1.64a20,20,0,0,0,3.17,1.19,1.36,1.36,0,0,1-1.16.13c4.75,1.56,9.62,5,14.22,7.39s8.75,3.93,11.25,2c2.16.33,4.38.41,6.54.61-3.94-1.33-3.47-1.78-2.41-2.13s2.68-.59,1.2-1.47a12.13,12.13,0,0,1,4.48,2c1,.72,1.18,1.34-.78,1l-.53-.42c-2.15,2.36,9.75,3.35,9.18,5q12.12,2.34,24.12,3.48l6,.44c2,.08,4,.09,6,.12,1,0,2,.05,3,0l2.95-.13c1.95-.12,3.91-.15,5.84-.41-.67-.62-1.33-1.23-2-1.9,1.78-.13,3.55-.36,5.33-.53,1.46.31,2.11,1.4-1.74,1.8,1.08.47,2.67,0,4-.61a5.52,5.52,0,0,0,2.32-1.74c3.76-.24,3.17.5,1.88,1.25s-3.26,1.52-2.1,1.35l3.09-.72-.74-.11c1.18-.65,1.79-1.21,2.66-1.7a8.61,8.61,0,0,1,1.63-.68,19.23,19.23,0,0,1,2.65-.71c2.94-.24,1.76.93,2.9.75,0,.15.43.13,1.75-.34,2.22-.52,4.42-1.12,6.64-1.67l-3.09-.86a23.47,23.47,0,0,1,3.63-1.55c.75-.37.73-.58-1-1.06,2.58.72,8.71-1,14.34-3.3,1.43-.53,2.79-1.2,4.09-1.79l3.61-1.67a27,27,0,0,1,4.53-2,26.54,26.54,0,0,1,2.48-2.06c.85-.66,1.72-1.29,2.64-1.89,1.83-1.22,3.88-2.28,6-3.64-1.25.39-2.87-.81.92-3a1.33,1.33,0,0,0,1.59,1.28,8.39,8.39,0,0,0,3.09-1.22c1.17-.66,2.46-1.44,3.74-2.05a13.35,13.35,0,0,1,1.9-.75,5.46,5.46,0,0,1,1.77-.33c-1.83.26.6-1.79,2.77-3.76a13.34,13.34,0,0,0,2.44-2.69c.37-.68.14-1-1.23-.7,3-2.17,1.11,1,3.83-.19.7-.88,1.51-1.68,2.29-2.54s1.62-1.69,2.49-2.52,1.81-1.63,2.73-2.47l2.79-2.58c1-.87,1.94-1.72,2.89-2.65s1.87-1.88,2.8-2.84a49.41,49.41,0,0,0,5.2-6.28c-.3-.44-2,.51-1.19-1.78,1.88-1,3.63-2.06,5.45-3.14.53-1,.22-1.79.24-2.65a2.38,2.38,0,0,1,.42-1.34,5.57,5.57,0,0,1,1.73-1.59c-.66.24-1.64.57-1-.72,6.86-8.24,11.51-18.32,15.23-28.57s6.63-20.76,10.67-31.19c-1.5,2.76-1.24.79-.89-1.43-.48,1.41-1.23-.22-2,0,1-2.88,2.08-5.79,3-8.75-.89-.92-.73-3.34-.58-5.68a17.44,17.44,0,0,0,0-3.23c-.09-.92-.31-1.61-.76-1.85l.26,2.86c-1-1.94-2.25-.65-3.6,1s-2.91,3.57-4.26,3.2a5.24,5.24,0,0,1,.25,3.52,31,31,0,0,1-1.49,4.07,27.25,27.25,0,0,0-1.42,4.51,9.78,9.78,0,0,0,.24,5c-.81,1.33-.66-1.39-1.42-.75.92,1.87.64,3.92-.71,7.45l-.19-.48-.39,1.86c-.14.6-.31,1.16-.47,1.72-.32,1.11-.64,2.14-1,3.13a47.59,47.59,0,0,1-2.17,5.56c-.41.89-.81,1.79-1.23,2.73s-.94,1.86-1.44,2.86c-1,2-2.08,4.24-3.51,6.8l1.6-.24a13.08,13.08,0,0,1-2.61,3.47c.68,3.53,3-6.42,4-3.08a8.44,8.44,0,0,0-2.88,3.38c-.94,1.62-2,3.54-3,5.46a34.29,34.29,0,0,1-3.19,5.12c-1.06,1.38-2.07,2.32-3.07,2.36-2.1,3.24,2-.12-.15,3.13l-1.27.41.39,1.43a5.87,5.87,0,0,1-2.26,2,1.92,1.92,0,0,1-1.58.16,13.2,13.2,0,0,0,1.16-2.1,17.35,17.35,0,0,0-3.65,4.72,19.43,19.43,0,0,1-2.45,3.61c.89-.86,1.81-1.71,2.7-2.59-.72,1.11-1.51,2.2-2.32,3.32s-1.62,2.27-2.56,3.34c-1.86,2.16-3.7,4.42-5.74,6.49l-3,3.19c-1,1-2,2-3,3.05-1.89,2.1-3.84,4-5.48,6l1,0c-.65.76-1.21,1.39-1.73,1.91s-1,.9-1.44,1.24a16.66,16.66,0,0,1-2.31,1.51c-.74.4-1.48.85-2.5,1.47a36.63,36.63,0,0,0-3.94,2.86l.16-.31a15.07,15.07,0,0,1-4.84,4.28c1.42-1.81-4.23,1-2.27-1.29-.8.72-1.46,1.27-2,1.72s-1,.82-1.3,1.12a5.82,5.82,0,0,0-1.17,1.3c-.2.34-.31.67-.6,1.22a13.22,13.22,0,0,1-1.75,2.51l-1.67-.35a18.26,18.26,0,0,1-1.54,2.07,12.88,12.88,0,0,1-3.47,2.36c2.86-2.3-3.21-.34-.1-3.08a20.52,20.52,0,0,0-5.7,1.84,40.63,40.63,0,0,0-4.09,2.22c-2.36,1.48-4.31,2.44-6.81,1.47-1.49,2.07.48,1.84,2.6,1.25s4.31-1.68,3.34-.93c1.08.1.48.93-.76,1.84a15.22,15.22,0,0,1-4.58,2.08c-1.41.44-2.88-.05-4.87-.48a15.55,15.55,0,0,0-3.4-.36,16,16,0,0,0-2.09.17,19.08,19.08,0,0,0-2.45.42c.7-.15.7-.38,1.4-.52a9.71,9.71,0,0,0-3.95,1,12.31,12.31,0,0,1-2.08.65,7,7,0,0,1-2.41,0c-1.51,2.09-4.24.66-4.42,3l6.5-1.69c-1.8.62-3.47,1.75-5.51,2.71a15.2,15.2,0,0,1-7.7,1.3,12.79,12.79,0,0,1,3.45-1.85c-1.89-.47-3.44.94-5.41.38.08-.59.63-.92,1.45-1.21a19.12,19.12,0,0,1,3.13-.65c1.22-.19,2.54-.36,3.79-.64a11.79,11.79,0,0,0,3.32-1.37c-1-.33-2.81.46-4.17.87s-2.26.55-1.43-.81c-1.21,1.74-3,1.87-5,1.94s-4.31-.15-6.68,1.24l.24-1.39a10.79,10.79,0,0,1-3.75,1l2.49-1.84a9.53,9.53,0,0,1-5.71.15c-1.87-.33-3.7-1-5.58-.57,3.92.09,4.36.49,4.24,1s-.83,1.24.85,1.69a13.63,13.63,0,0,1-3.09.36,9.13,9.13,0,0,1-2.12-.2,6.91,6.91,0,0,1-2.63-1.32,11.86,11.86,0,0,0-2.79-1.64,17.21,17.21,0,0,0-5.7-.9c1.46,0,5.41,1.25,3.07,1.72a24.88,24.88,0,0,1-3.27-.88,11.26,11.26,0,0,1-2.6-1.26c-7.14-.62.91,1.53-2.23,2-2.21-1.92-3.61.13-6.88.11l.23-1.37a19.77,19.77,0,0,0-2.41-.57,6.2,6.2,0,0,0-1.46-.14,1.85,1.85,0,0,0-1.35.64c-.59.59-1.09,1.17-4.63-.2l3.54-1.17c-1.29-.14-2.6-.23-3.89-.42l1.16-1.32a17.7,17.7,0,0,1-4.87-.52,25.3,25.3,0,0,1-4.44-1.79c.6,1.24-1.3,2.23-4.83,1.08-2.08-1.64,1.75-.71-3.17-2.42a6.38,6.38,0,0,1,2.22-.36,3.72,3.72,0,0,1,2.44,1.37c.37-.35,1.38-.45,1.74-.8-2.23-1.68-6.17-2.53-7.92-3.19a7.14,7.14,0,0,1,1.75,1c-1.27-.16-2.56-.3-3.84-.49l-3.82-.67c-.86-1,.17-1,1.19-1-1.44-.51-2.7-.29-4.75-1.2,1-.76,1.39-1.82,4.46-1-2.34-.54-4.59-1.29-6.9-2-.21-.65-2.57-2.87-1.56-2.81-1.52-1.27-3.86-1.95-6.33-2.81a36.14,36.14,0,0,1-3.65-1.57,11.75,11.75,0,0,1-3.26-2.24,4.18,4.18,0,0,1-1.91-.63c-1-.77-1.85-1.56-2.74-2.36s-1.68-1.7-2.58-2.52A30.24,30.24,0,0,0,64,271.2,21.36,21.36,0,0,0,60.47,269c-.38-1.24-.79-2.41-1.1-3.68-1.78-1.38-1.42-.16-1.35.85s-.14,1.79-3.17-.57c-2.19-1.64-2.26-2.29-1.88-2.76s1.14-.71.7-1.59a31.47,31.47,0,0,1-4.89-2.62,12.69,12.69,0,0,1-4.4-5.44C45.75,254.2,46.36,255.36,47.47,256.41ZM18.31,208.55c.31.47.85,1.15,1.26,1.83a2.16,2.16,0,0,1,.49,1.87,2,2,0,0,1-1.57-1.35A15.73,15.73,0,0,1,18.31,208.55ZM11.61,123c.22.92-.26,2.12-1.11,3.41A8.82,8.82,0,0,1,11.61,123ZM207.27,10.79l-.14,0C204.78,9.44,205.6,10,207.27,10.79Zm5,2.46c.59,0,.62-.17.48-.44-.49.19-1.65-.25-2.93-.85C210,12.43,210.61,12.94,212.25,13.25Zm-19,300.05-1.13-.11C194.37,312.26,193.8,312.76,193.25,313.3Z"/><path class="cls-8" d="M11.32,133.09a1.22,1.22,0,0,1-.82.33C10.65,133.89,10.92,134,11.32,133.09Z"/><path class="cls-8" d="M74,279l.13.11a.66.66,0,0,0,.28-.11Z"/><path class="cls-8" d="M130.32,16.76a5.37,5.37,0,0,1-2.13-.35C128.2,16.75,128.72,17,130.32,16.76Z"/><path class="cls-8" d="M239.64,24.18c-1-.56-2.17-1-3.26-1.52a7.15,7.15,0,0,1,2.53,2C239,24.37,238.69,23.6,239.64,24.18Z"/><path class="cls-8" d="M258.5,49.32c.48.22.78.71,1.25.92l.35-.56C258.53,48.24,257.11,47.61,258.5,49.32Z"/><path class="cls-8" d="M239.92,29.86c-.2.57.21,1.06.94,1.56a14.68,14.68,0,0,0,1.3.74l1.52.88c-.12-.08-.24-.16-.35-.25.76-.47.53-1-.19-1.48A17.75,17.75,0,0,0,239.92,29.86Z"/><path class="cls-8" d="M244.16,33.33A14.44,14.44,0,0,1,246,34.61C246.63,34.24,245.35,34,244.16,33.33Z"/><path class="cls-8" d="M219,15.19c1,.76,1.28-1.07,1.7-.36.91-.4-1.09-.81-2.51-.86-.71,0-1.29.06-1.3.25S217.49,14.7,219,15.19Z"/><polygon class="cls-8" points="239.44 34.15 239.52 32.48 237.76 32.73 239.44 34.15"/><path class="cls-8" d="M223.68,23.81l3.21,2.1c.07-.24.56-.15,1.15,0C226,24.82,223.79,23.38,223.68,23.81Z"/><path class="cls-8" d="M228,25.94a11.36,11.36,0,0,0,2.8,1.31A19.11,19.11,0,0,0,228,25.94Z"/><path class="cls-8" d="M234.84,31.72c-.26-.29-.52-.59-.79-.86l-2.27-1.43C232.81,30.2,233.87,30.89,234.84,31.72Z"/><path class="cls-8" d="M184.91,10.34,180.72,10c-.5.41.57.91,2.12,1C183.88,10.84,185.44,10.93,184.91,10.34Z"/><path class="cls-8" d="M196.13,17.1c-1-.59-1-.92-1.44-1.55l-.59,1.7Z"/><path class="cls-8" d="M184.5,14.73c-.5.41-6,.37-1,1.16C184,15.45,188.08,15.84,184.5,14.73Z"/><polygon class="cls-8" points="123.21 13.13 124.23 12.87 123.47 10.03 123.21 13.13"/><path class="cls-8" d="M76.84,40.12c4.31-1.91,0-2.15,4-3.65.57-1.2-3.32,1.23-2.68.12C76.16,38.75,74.69,39.2,76.84,40.12Z"/><path class="cls-8" d="M78.17,36.59c.33-.35.66-.73,1-1.17A6.58,6.58,0,0,0,78.17,36.59Z"/><path class="cls-8" d="M314.09,169.68c.31-1.09.5-2.19.74-3.28l-1,2.09C313.91,168.88,314,169.28,314.09,169.68Z"/><path class="cls-8" d="M312.11,163.3l1.9-.75-1.65-2C312.42,161.31,312.55,162.75,312.11,163.3Z"/><path class="cls-8" d="M19.41,199.5l-.5-.1c-.34.58-.19,1.26.12,2.62Z"/><polygon class="cls-8" points="34.46 236.63 34.12 236.02 33.39 238.03 34.46 236.63"/><path class="cls-8" d="M57.24,261.39c-1-1-2.33-1.87-3.22-2.92C56.25,260.44,56,263.15,57.24,261.39Z"/></g></g></g></svg>