<svg xmlns="http://www.w3.org/2000/svg" viewBox="0 0 522.01 516.07"><defs><style>.cls-1{fill:none;}.cls-1,.cls-2{stroke:#231f20;stroke-miterlimit:10;stroke-width:2px;}.cls-1,.cls-12,.cls-2,.cls-3,.cls-4{opacity:0.5;}.cls-2{fill:#fff;}.cls-3,.cls-4{fill:#231f20;}.cls-4{font-size:23px;font-family:MyriadPro-Regular, Myriad Pro;}.cls-5{letter-spacing:-0.04em;}.cls-6{letter-spacing:0.01em;}.cls-7{letter-spacing:-0.01em;}.cls-8{letter-spacing:-0.04em;}.cls-9{letter-spacing:-0.03em;}.cls-10{letter-spacing:0em;}.cls-11{letter-spacing:-0.01em;}.cls-13{fill:#eae611;}.cls-14{letter-spacing:0.01em;}.cls-15{letter-spacing:-0.01em;}.cls-16{letter-spacing:-0.04em;}</style></defs><title>rev</title><g id="Layer_2" data-name="Layer 2"><g id="Layer_1-2" data-name="Layer 1"><polygon class="cls-1" points="359.18 88.24 360.88 97.71 352.32 93.3 343.84 97.84 345.4 88.34 338.46 81.68 347.97 80.22 352.16 71.56 356.49 80.16 366.02 81.47 359.18 88.24"/><polygon class="cls-1" points="390.12 89.4 391.82 98.87 383.27 94.46 374.79 99 376.34 89.5 369.4 82.84 378.92 81.38 383.11 72.72 387.43 81.32 396.97 82.63 390.12 89.4"/><polygon class="cls-1" points="419.98 89.8 421.68 99.27 413.13 94.85 404.65 99.39 406.2 89.9 399.26 83.23 408.77 81.78 412.97 73.12 417.29 81.72 426.83 83.03 419.98 89.8"/><polygon class="cls-1" points="449.12 89.8 450.81 99.28 442.26 94.86 433.78 99.4 435.33 89.91 428.39 83.24 437.91 81.79 442.1 73.12 446.42 81.72 455.96 83.04 449.12 89.8"/><polygon class="cls-1" points="479.33 90.94 481.02 100.42 472.47 96 463.99 100.54 465.54 91.05 458.6 84.38 468.12 82.93 472.31 74.27 476.63 82.86 486.17 84.18 479.33 90.94"/><polygon class="cls-2" points="351.3 289.34 353 298.81 344.45 294.4 335.97 298.94 337.52 289.44 330.58 282.77 340.09 281.32 344.29 272.66 348.61 281.26 358.15 282.57 351.3 289.34"/><polygon class="cls-2" points="382.25 290.5 383.95 299.97 375.4 295.56 366.91 300.1 368.47 290.6 361.53 283.93 371.04 282.48 375.24 273.82 379.56 282.42 389.09 283.73 382.25 290.5"/><polygon class="cls-2" points="412.11 290.89 413.81 300.37 405.26 295.95 396.77 300.49 398.33 290.99 391.39 284.33 400.9 282.87 405.1 274.21 409.42 282.81 418.95 284.13 412.11 290.89"/><polygon class="cls-2" points="441.24 290.9 442.94 300.37 434.39 295.96 425.9 300.5 427.46 291 420.52 284.34 430.03 282.88 434.23 274.22 438.55 282.82 448.08 284.13 441.24 290.9"/><polygon class="cls-2" points="471.45 292.04 473.15 301.51 464.6 297.1 456.11 301.64 457.67 292.14 450.73 285.48 460.24 284.02 464.44 275.36 468.76 283.96 478.29 285.27 471.45 292.04"/><path class="cls-2" d="M326,112.06H499.68c11.78,0,21.33-8.24,21.33-18.4V38.46c0-10.16-9.55-18.4-21.33-18.4H326c-11.49,0-20.83,7.84-21.29,17.65a236.29,236.29,0,0,1-37.06-.39V7a6,6,0,0,0-12,0V138.75a236,236,0,0,1-37.82.46c-.46-9.81-9.8-17.65-21.29-17.65H22.86c-11.78,0-21.33,8.24-21.33,18.4v55.2c0,10.16,9.55,18.4,21.33,18.4H196.54c11.78,0,21.33-8.24,21.33-18.4V154.45c10.29-1.66,26.28-5.26,37.78-12.63V332.19a234.54,234.54,0,0,1-38.35.52c-.46-9.81-9.8-17.65-21.29-17.65H22.33C10.55,315.06,1,323.3,1,333.46v55.2c0,10.16,9.55,18.4,21.33,18.4H196c11.78,0,21.33-8.24,21.33-18.4V348c10.44-1.68,26.77-5.37,38.31-13V441a6,6,0,0,0,12,0V235.77c11.11,6.07,25.15,9.17,34.48,10.68v40.71c0,10.16,9.55,18.4,21.33,18.4H497.15c11.78,0,21.33-8.24,21.33-18.4V232c0-10.16-9.55-18.4-21.33-18.4H323.46c-11.48,0-20.82,7.84-21.28,17.65a233.63,233.63,0,0,1-34.53-.18V40.8c11.44,7.05,27,10.53,37,12.15V93.66C304.67,103.82,314.22,112.06,326,112.06ZM468.12,82.93l4.19-8.66,4.32,8.59,9.54,1.32-6.84,6.76,1.69,9.48L472.47,96,464,100.54l1.55-9.49-6.94-6.67Zm-30.21-1.14,4.19-8.67,4.32,8.6L456,83l-6.84,6.76,1.69,9.48-8.55-4.42-8.48,4.54,1.55-9.49-6.94-6.67Zm-29.14,0,4.2-8.66,4.32,8.6L426.83,83,420,89.8l1.7,9.47-8.55-4.42-8.48,4.54,1.55-9.49-6.94-6.67Zm-29.85-.4,4.19-8.66,4.32,8.6L397,82.63l-6.85,6.77,1.7,9.47-8.55-4.41L374.79,99l1.55-9.5-6.94-6.66ZM348,80.22l4.19-8.66,4.33,8.6L366,81.47l-6.84,6.77,1.7,9.47-8.56-4.41-8.48,4.54,1.56-9.5-6.94-6.66ZM460.24,284l4.2-8.66,4.32,8.6,9.53,1.31L471.45,292l1.7,9.47-8.55-4.41-8.49,4.54,1.56-9.5-6.94-6.66ZM430,282.88l4.2-8.66,4.32,8.6,9.53,1.31-6.84,6.77,1.7,9.47L434.39,296l-8.49,4.54,1.56-9.5-6.94-6.66Zm-29.13,0,4.2-8.66,4.32,8.6,9.53,1.32-6.84,6.76,1.7,9.48L405.26,296l-8.49,4.54,1.56-9.5-6.94-6.66ZM371,282.48l4.2-8.66,4.32,8.6,9.53,1.31-6.84,6.77L384,300l-8.55-4.41-8.49,4.54,1.56-9.5-6.94-6.67Zm-31-1.16,4.2-8.66,4.32,8.6,9.54,1.31-6.85,6.77,1.7,9.47-8.55-4.41L336,298.94l1.55-9.5-6.94-6.67Z"/><path class="cls-3" d="M106.07,446.21c61.8-18.77,180.46-42.22,323-7.71,25.69,6.22,27.2,42.22,2.14,50.59-73.48,24.53-197,48-326.93-5C86.78,477,88,451.71,106.07,446.21Z"/><text class="cls-4" transform="translate(316.01 55.39)">He<tspan class="cls-5" x="26.52" y="0">y</tspan><tspan x="36.46" y="0">, </tspan><tspan class="cls-6" x="46.09" y="0">N</tspan><tspan x="61.46" y="0">i</tspan><tspan class="cls-7" x="66.84" y="0">c</tspan><tspan x="77" y="0">e</tspan><tspan class="cls-8" x="88.53" y="0"> </tspan><tspan class="cls-9" x="92.57" y="0">W</tspan><tspan x="111.27" y="0">o</tspan><tspan class="cls-10" x="123.9" y="0">r</tspan><tspan x="131.51" y="0">k b</tspan><tspan class="cls-11" x="160.26" y="0">r</tspan><tspan x="167.55" y="0">o !</tspan></text><g class="cls-12"><polygon class="cls-13" points="359.18 88.24 360.88 97.71 352.32 93.3 343.84 97.84 345.4 88.34 338.46 81.68 347.97 80.22 352.16 71.56 356.49 80.16 366.02 81.47 359.18 88.24"/><polygon class="cls-13" points="390.12 89.4 391.82 98.87 383.27 94.46 374.79 99 376.34 89.5 369.4 82.84 378.92 81.38 383.11 72.72 387.43 81.32 396.97 82.63 390.12 89.4"/><polygon class="cls-13" points="419.98 89.8 421.68 99.27 413.13 94.85 404.65 99.39 406.2 89.9 399.26 83.23 408.77 81.78 412.97 73.12 417.29 81.72 426.83 83.03 419.98 89.8"/><polygon class="cls-13" points="449.12 89.8 450.81 99.28 442.26 94.86 433.78 99.4 435.33 89.91 428.39 83.24 437.91 81.79 442.1 73.12 446.42 81.72 455.96 83.04 449.12 89.8"/><polygon class="cls-13" points="479.33 90.94 481.02 100.42 472.47 96 463.99 100.54 465.54 91.05 458.6 84.38 468.12 82.93 472.31 74.27 476.63 82.86 486.17 84.18 479.33 90.94"/></g><g class="cls-12"><polygon class="cls-13" points="53.53 203.88 44.98 199.47 36.5 204.01 38.06 194.51 31.12 187.84 40.63 186.39 44.83 177.73 49.15 186.33 58.68 187.64 51.84 194.41 53.53 203.88"/><polygon class="cls-13" points="84.48 205.04 75.93 200.63 67.45 205.17 69 195.67 62.06 189 71.58 187.55 75.77 178.89 80.09 187.49 89.63 188.8 82.78 195.57 84.48 205.04"/><polygon class="cls-13" points="114.34 205.44 105.79 201.02 97.31 205.56 98.86 196.06 91.92 189.4 101.44 187.94 105.63 179.28 109.95 187.88 119.49 189.19 112.64 195.96 114.34 205.44"/><polygon class="cls-13" points="143.47 205.44 134.92 201.03 126.44 205.57 128 196.07 121.05 189.41 130.57 187.95 134.76 179.29 139.09 187.89 148.62 189.2 141.78 195.97 143.47 205.44"/><polygon class="cls-13" points="173.68 206.58 165.13 202.17 156.65 206.71 158.2 197.21 151.26 190.55 160.78 189.09 164.97 180.43 169.29 189.03 178.83 190.34 171.99 197.11 173.68 206.58"/></g><g class="cls-12"><polygon class="cls-13" points="55.83 397.87 47.28 393.45 38.79 397.99 40.35 388.5 33.41 381.83 42.92 380.38 47.12 371.72 51.44 380.31 60.97 381.63 54.13 388.4 55.83 397.87"/><polygon class="cls-13" points="86.78 399.03 78.22 394.61 69.74 399.15 71.3 389.66 64.36 382.99 73.87 381.54 78.06 372.88 82.39 381.47 91.92 382.79 85.08 389.56 86.78 399.03"/><polygon class="cls-13" points="116.63 399.42 108.08 395.01 99.6 399.55 101.16 390.05 94.22 383.39 103.73 381.93 107.92 373.27 112.25 381.87 121.78 383.18 114.94 389.95 116.63 399.42"/><polygon class="cls-13" points="145.77 399.43 137.22 395.01 128.73 399.56 130.29 390.06 123.35 383.39 132.86 381.94 137.06 373.28 141.38 381.88 150.91 383.19 144.07 389.96 145.77 399.43"/><polygon class="cls-13" points="175.97 400.57 167.43 396.16 158.94 400.7 160.5 391.2 153.56 384.53 163.07 383.08 167.26 374.42 171.59 383.02 181.12 384.33 174.28 391.1 175.97 400.57"/></g><g class="cls-12"><polygon class="cls-13" points="351.3 289.34 353 298.81 344.45 294.4 335.97 298.94 337.52 289.44 330.58 282.77 340.09 281.32 344.29 272.66 348.61 281.26 358.15 282.57 351.3 289.34"/><polygon class="cls-13" points="382.25 290.5 383.95 299.97 375.4 295.56 366.91 300.1 368.47 290.6 361.53 283.93 371.04 282.48 375.24 273.82 379.56 282.42 389.09 283.73 382.25 290.5"/><polygon class="cls-13" points="412.11 290.89 413.81 300.37 405.26 295.95 396.77 300.49 398.33 290.99 391.39 284.33 400.9 282.87 405.1 274.21 409.42 282.81 418.95 284.13 412.11 290.89"/><polygon class="cls-13" points="441.24 290.9 442.94 300.37 434.39 295.96 425.9 300.5 427.46 291 420.52 284.34 430.03 282.88 434.23 274.22 438.55 282.82 448.08 284.13 441.24 290.9"/><polygon class="cls-13" points="471.45 292.04 473.15 301.51 464.6 297.1 456.11 301.64 457.67 292.14 450.73 285.48 460.24 284.02 464.44 275.36 468.76 283.96 478.29 285.27 471.45 292.04"/></g><text class="cls-4" transform="translate(26.55 156.96)"><tspan class="cls-14">N</tspan><tspan x="15.36" y="0">i</tspan><tspan class="cls-15" x="20.75" y="0">c</tspan><tspan x="30.91" y="0">e</tspan><tspan class="cls-16" x="42.43" y="0"> </tspan><tspan class="cls-9" x="46.48" y="0">W</tspan><tspan x="65.18" y="0">o</tspan><tspan class="cls-10" x="77.81" y="0">r</tspan><tspan x="85.42" y="0">k !</tspan></text><text class="cls-4" transform="translate(319.6 239.5)">Keep it up</text><text class="cls-4" transform="translate(16.67 342.52)">Keep it up</text></g></g></svg>